<?xml version="1.0" encoding="UTF-8" standalone="no"?>
<!-- Created with Inkscape (http://www.inkscape.org/) -->

<svg
        xmlns:dc="http://purl.org/dc/elements/1.1/"
        xmlns:cc="http://creativecommons.org/ns#"
        xmlns:rdf="http://www.w3.org/1999/02/22-rdf-syntax-ns#"
        xmlns:sodipodi="http://sodipodi.sourceforge.net/DTD/sodipodi-0.dtd"
        xmlns:inkscape="http://www.inkscape.org/namespaces/inkscape"
        xmlns="http://www.w3.org/2000/svg"
        width="263.7236mm"
        height="131.09483mm"
        viewBox="0 0 263.7236 131.09483"
        version="1.1"
        id="svg8"
        inkscape:version="0.92.1 r"
        sodipodi:docname="itemset-miner.svg">
    <defs
            id="defs2">
        <clipPath
                clipPathUnits="userSpaceOnUse"
                id="clipPath5484">
            <path
                    style="color:#000000;clip-rule:nonzero;display:inline;overflow:visible;visibility:visible;opacity:1;isolation:auto;mix-blend-mode:normal;color-interpolation:sRGB;color-interpolation-filters:linearRGB;solid-color:#000000;solid-opacity:1;fill:#000000;fill-opacity:0.50819672;fill-rule:nonzero;stroke:#000000;stroke-width:0.39999998;stroke-linecap:round;stroke-linejoin:round;stroke-miterlimit:4;stroke-dasharray:none;stroke-dashoffset:0;stroke-opacity:1;color-rendering:auto;image-rendering:auto;shape-rendering:auto;text-rendering:auto;enable-background:accumulate"
                    d="m 40.660964,126.87539 18.378099,8.61666 c 3.91251,1.8344 5.587211,6.46178 3.754935,10.37528 l -16.636154,35.53271 c -1.832273,3.91351 -7.272279,0.73976 -10.36965,3.7529 -4.482886,4.361 -10.351016,5.61912 -15.084658,5.71738 l -4.496154,-14.33404 c -1.2933,-4.12312 -5.693741,-6.51344 -3.754941,-10.37528 l 17.83887,-35.53271 c 1.938801,-3.86184 6.457141,-5.5873 10.369653,-3.7529 z"
                    id="path5486"
                    inkscape:connector-curvature="0"
                    sodipodi:nodetypes="ssssscssss"/>
        </clipPath>
    </defs>
    <sodipodi:namedview
            id="base"
            pagecolor="#ffffff"
            bordercolor="#666666"
            borderopacity="1.0"
            inkscape:pageopacity="0.0"
            inkscape:pageshadow="2"
            inkscape:zoom="0.24748737"
            inkscape:cx="34.183765"
            inkscape:cy="592.72994"
            inkscape:document-units="mm"
            inkscape:current-layer="layer1"
            showgrid="false"
            inkscape:snap-bbox="true"
            showguides="false"
            inkscape:guide-bbox="true"
            inkscape:window-width="1714"
            inkscape:window-height="1413"
            inkscape:window-x="4"
            inkscape:window-y="23"
            inkscape:window-maximized="0"
            fit-margin-top="0"
            fit-margin-left="0"
            fit-margin-right="0"
            fit-margin-bottom="0">
        <sodipodi:guide
                position="49.726561,127.44839"
                orientation="0,1"
                id="guide12"
                inkscape:locked="false"/>
        <sodipodi:guide
                position="68.74569,127.44838"
                orientation="1,0"
                id="guide16"
                inkscape:locked="false"/>
        <sodipodi:guide
                position="53.110421,127.44838"
                orientation="1,0"
                id="guide18"
                inkscape:locked="false"/>
        <sodipodi:guide
                position="68.74569,129.8586"
                orientation="0,1"
                id="guide73"
                inkscape:locked="false"/>
        <sodipodi:guide
                position="49.518991,58.647993"
                orientation="0,1"
                id="guide4554"
                inkscape:locked="false"/>
        <sodipodi:guide
                position="73.98846,123.54197"
                orientation="0,1"
                id="guide4556"
                inkscape:locked="false"/>
        <sodipodi:guide
                position="81.854541,97.588293"
                orientation="1,0"
                id="guide4497"
                inkscape:locked="false"/>
    </sodipodi:namedview>
    <metadata
            id="metadata5">
        <rdf:RDF>
            <cc:Work
                    rdf:about="">
                <dc:format>image/svg+xml</dc:format>
                <dc:type
                        rdf:resource="http://purl.org/dc/dcmitype/StillImage"/>
                <dc:title></dc:title>
            </cc:Work>
        </rdf:RDF>
    </metadata>
    <g
            inkscape:groupmode="layer"
            id="layer2"
            inkscape:label="Ebene 2"
            style="display:inline"
            transform="translate(5.2889366,-19.935714)">
        <path
                style="fill:#000000;fill-opacity:1;fill-rule:evenodd;stroke:#000000;stroke-width:0.37110364px;stroke-linecap:butt;stroke-linejoin:miter;stroke-opacity:1"
                d="m 55.240825,35.925991 c 2.675416,2.406161 4.587034,5.77648 5.597951,9.229814 0.551794,1.885036 0.143475,5.890715 0.143475,5.890715 0,0 -2.378564,-7.995245 -5.204494,-10.836105 -5.474812,-5.503724 -20.93982,-10.193338 -20.93982,-10.193338 0,0 -25.4728386,105.684493 -25.9784226,106.061523 -0.5055793,0.37704 -4.6174265,-0.6302 -4.7851748,-1.17207 C 3.9066018,134.36465 30.052774,28.844992 30.052774,28.844992 c 0,0 -15.881709,-2.988365 -23.2803236,-0.637822 -3.8189534,1.213253 -9.6232511,7.204223 -9.6232511,7.204223 0,0 1.3447135,-3.106023 2.84967535,-5.157549 C 2.1271949,27.352538 4.2475219,25.186683 7.7320708,24.289336 16.039498,22.150013 25.113568,23.30596 33.445736,25.34681 c 8.332161,2.040849 15.416668,4.842756 21.79504,10.579181 z"
                id="path10"
                inkscape:connector-curvature="0"
                sodipodi:nodetypes="sacaczzcacssss"/>
    </g>
    <g
            inkscape:label="Ebene 1"
            inkscape:groupmode="layer"
            id="layer1"
            transform="translate(-7.1588578,-162.19584)"
            style="display:inline">
        <path
                style="fill:#000000;stroke:#000000;stroke-width:0.30689186;stroke-miterlimit:4;stroke-dasharray:none;stroke-opacity:1"
                d="m 35.072241,253.00809 c 0.04701,-0.0795 0.312765,-0.25142 0.590585,-0.38222 0.417246,-0.19632 0.648742,-0.24905 1.329758,-0.30286 1.16005,-0.0916 2.143586,-0.29346 4.633462,-0.95083 4.449779,-1.17479 6.672073,-1.86174 9.278468,-2.86806 l 1.464014,-0.56527 -0.586891,-0.26869 c -0.322803,-0.14772 -2.402829,-1.04962 -4.622311,-2.0041 l -4.035418,-1.73542 -1.263667,-0.85599 c -2.214954,-1.50035 -3.484097,-2.59406 -4.571465,-3.93955 l -0.501613,-0.62074 0.0244,-0.91787 c 0.02098,-0.78372 0.0438,-0.9427 0.156988,-1.08775 0.19446,-0.24944 1.71158,-9.79389 1.629221,-10.24985 -0.04894,-0.27084 -0.01759,-0.41643 0.258601,-1.2012 l 0.314237,-0.893 0.764817,-0.60786 c 0.619696,-0.4925 0.937324,-0.6825 1.673895,-1.00137 1.257305,-0.54428 3.20825,-0.96236 5.667244,-1.21443 2.351737,-0.24108 4.00849,-0.45399 7.28274,-0.9359 1.479092,-0.21769 2.757164,-0.40488 2.840162,-0.41604 0.149616,-0.02 0.149851,-0.0351 0.02675,-1.76133 -0.34891,-4.89282 -0.99824,-8.86031 -1.826672,-11.16136 -0.310735,-0.86309 -0.501074,-1.25521 -0.922019,-1.89934 -0.633844,-0.96984 -1.009069,-1.38942 -1.261204,-1.41018 -0.32257,-0.0266 -0.94997,0.2876 -1.648027,0.82524 -0.608359,0.46852 -0.765725,0.55006 -1.500691,0.77744 -0.451583,0.13971 -0.910849,0.24597 -1.020572,0.23614 -0.109767,-0.01 -0.502052,-0.12207 -0.872001,-0.24851 l -0.672466,-0.23067 -0.55177,-0.68751 c -0.307138,-0.38269 -0.824813,-1.17789 -1.167526,-1.7936 -0.858871,-1.54276 -1.131764,-2.46444 -1.645636,-5.55798 -0.335122,-2.0175 -0.41978,-2.75056 -0.581251,-5.03361 -0.135102,-1.91008 -0.252164,-3.02392 -0.410461,-3.90545 -0.275207,-1.53243 -0.934164,-5.03267 -0.578668,-5.14795 0.360017,-0.11679 1.319936,-0.21773 1.45448,-0.15298 0.05827,0.0281 0.126844,0.17214 0.152124,0.3203 0.02534,0.14808 0.12614,0.72386 0.223918,1.27946 0.15594,0.88595 0.98389,6.20736 1.155819,9.00843 0.08682,1.41442 0.768736,5.37087 1.124023,6.52149 0.320651,1.0385 0.995556,2.35768 1.632742,3.19139 0.517182,0.67675 1.028507,0.62185 2.127919,-0.22842 0.451748,-0.34937 0.869939,-0.58992 1.462292,-0.84127 l 0.829612,-0.35198 0.827485,0.11579 c 0.481748,0.0675 0.884673,0.16029 0.964298,0.22223 0.356058,0.27694 1.231566,1.33421 1.727759,2.08649 1.531403,2.32167 2.500565,6.8655 3.016224,14.14117 0.05846,0.82545 0.117113,1.522 0.130238,1.54785 0.01302,0.026 0.291171,0.0912 0.617839,0.14531 0.326702,0.0541 0.697955,0.12522 0.825021,0.15833 0.24401,0.0629 0.694327,0.53247 0.898754,0.93603 0.121884,0.24049 0.120416,0.70026 -0.0027,0.89617 -0.09155,0.14562 -0.144738,5.4656 -0.05831,5.8314 0.03365,0.14287 0.06881,0.75074 0.07799,1.35078 l 0.01669,1.09097 -0.246957,0.43145 c -0.13577,0.23732 -0.398903,0.64856 -0.584655,0.91391 l -0.337709,0.48243 -0.998703,0.42337 c -0.688226,0.29173 -1.332973,0.49857 -2.073983,0.6653 -1.677483,0.37743 -3.670336,0.7238 -5.316603,0.92409 -0.828965,0.10084 -1.517143,0.19064 -1.529315,0.19955 -0.02568,0.0188 0.839327,0.44414 4.496072,2.21058 2.457845,1.18729 2.731903,1.33805 3.620808,1.99185 l 0.961706,0.70733 0.519979,0.84922 0.51998,0.8492 0.01781,0.91701 c 0.01573,0.80827 -0.0025,0.9909 -0.153691,1.54003 -0.254794,0.92519 -1.099818,9.03548 -0.97501,9.35794 0.06806,0.17595 0.05674,0.43682 -0.05707,1.31478 l -0.142062,1.09532 -0.729653,1.03228 -0.729671,1.0323 -1.143494,0.84206 c -0.628908,0.46319 -1.565469,1.10632 -2.08106,1.42947 -0.794778,0.49748 -0.917767,0.59842 -0.806601,0.66142 0.07216,0.041 0.659532,0.62557 1.305237,1.29924 l 1.174006,1.22482 0.345995,1.08916 0.345996,1.08916 -0.15745,2.85676 c -0.219808,3.98636 -0.21315,4.34828 0.09605,5.27139 0.236917,0.70732 0.271819,0.76364 0.786616,1.26955 l 0.538682,0.52939 1.04005,0.28888 c 0.990231,0.27502 1.084949,0.28898 1.977661,0.29042 1.275784,0.002 2.626584,-0.29064 4.400807,-0.95394 1.795115,-0.6711 3.870213,-1.24131 5.547992,-1.52451 1.154287,-0.19481 1.679722,-0.24227 2.969859,-0.26817 1.479861,-0.0297 1.651911,-0.0192 3.0779,0.18779 1.295021,0.188 1.723138,0.28339 3.001892,0.66891 1.838067,0.55415 3.829438,1.40198 5.650776,2.40574 1.530948,0.84375 2.698387,1.33148 3.455208,1.44358 0.617806,0.0915 0.873522,0.032 0.893303,-0.20819 0.02424,-0.29441 -0.314428,-1.35563 -0.663099,-2.07778 -0.187626,-0.38854 -1.048586,-4.80447 -1.048586,-4.80447 l 1.878231,-0.32232 0.73048,1.30899 c 0,0 0.823136,4.28437 0.929021,4.63336 0.172807,0.56955 0.18878,0.73111 0.156021,1.57772 -0.045,1.16435 -0.05812,1.18482 -1.0979,1.69964 l -0.744348,0.36863 -0.953526,-0.0785 c -0.931468,-0.0767 -0.98046,-0.0898 -2.120333,-0.53214 -0.742675,-0.28874 -1.618185,-0.70334 -2.408496,-1.14056 -2.729785,-1.5102 -5.385916,-2.47594 -7.90184,-2.87301 -1.275082,-0.20131 -1.454209,-0.21335 -2.71432,-0.18354 -2.410383,0.057 -5.011785,0.60975 -7.854545,1.66895 -0.978906,0.36474 -1.678845,0.56654 -2.756561,0.7948 -1.379138,0.29212 -1.499005,0.30503 -2.649347,0.28536 -1.198647,-0.0205 -1.210362,-0.0222 -2.265879,-0.32619 -0.887449,-0.25559 -1.084212,-0.33678 -1.202865,-0.49646 -0.155143,-0.20802 -1.116983,-0.90484 -2.547301,-1.84403 -1.196341,-0.78556 -1.967834,-1.39412 -4.400259,-3.47087 l -2.015006,-1.72037 -2.211812,-0.86736 c -2.622349,-1.02836 -3.91059,-1.41046 -5.816789,-1.72538 -1.657312,-0.27378 -3.225436,-0.6599 -4.09536,-1.00827 -1.040509,-0.41677 -1.545123,-1.12436 -1.292634,-1.81265 0.121373,-0.33103 -0.402014,-9.97513 -0.555662,-10.23806 -0.11125,-0.1906 -0.08811,-0.67509 0.04316,-0.8971 z m 0.133859,0.87025 c 0.08624,0.23701 0.180748,1.51568 0.361089,4.89008 0.303028,5.66996 0.245693,5.0533 0.466563,5.01682 0.249718,-0.0413 0.217727,0.0762 -0.05712,0.20944 -0.300046,0.14547 -0.341165,0.49329 -0.09863,0.83489 0.18351,0.25811 0.396217,0.31596 0.639936,0.17358 0.254967,-0.14894 0.964899,-0.24418 2.239025,-0.30024 3.789958,-0.16669 9.385572,-1.79336 13.65079,-3.96833 1.504908,-0.7674 2.89681,-1.62763 4.442532,-2.74559 l 1.20025,-0.86809 0.761929,-1.07703 0.761948,-1.07703 0.035,-0.58348 c 0.0205,-0.33432 0.01263,-0.45325 -0.01761,-0.27846 -0.02907,0.16774 -0.07838,0.30287 -0.109615,0.3003 -0.06496,-0.005 0.07991,-2.82905 0.252782,-4.92868 0.06442,-0.78242 0.144356,-2.01409 0.177599,-2.73708 l 0.06046,-1.31445 -0.515904,0.62844 c -0.283745,0.34564 -0.548234,0.63668 -0.587743,0.64676 -0.172541,0.0441 -0.01371,-0.20759 0.626416,-0.99256 l 0.684087,-0.83887 0.345454,-1.06784 c 0.33961,-1.04981 0.345259,-1.08112 0.333855,-1.85357 -0.0065,-0.43217 -0.03307,-0.85303 -0.05928,-0.93525 -0.0262,-0.0822 -0.251799,-0.49072 -0.501288,-0.90777 -0.451923,-0.75551 -0.457139,-0.76081 -1.399947,-1.44286 -0.561366,-0.40608 -1.273688,-0.84381 -1.751099,-1.07604 -7.098591,-3.45289 -6.759548,-3.30462 -7.306548,-3.19528 -0.175992,0.0352 -0.171283,0.0428 0.09651,0.15625 0.556103,0.23623 2.591768,1.24798 2.653598,1.31889 0.106728,0.12244 -4.93e-4,0.0796 -0.89103,-0.35741 -2.099315,-1.02966 -2.252007,-1.08993 -2.676945,-1.05684 -1.562041,0.11645 -0.560053,0.0892 -1.562041,0.11645 -1.956716,0.15864 -4.263547,0.61855 -6.165252,1.2291 -0.822545,0.26407 -1.968859,0.86273 -2.42868,1.26835 -0.580418,0.512 -0.585633,0.69066 -0.03985,1.3615 0.26863,0.33021 0.377814,0.51586 0.312579,0.53182 -0.110627,0.027 -0.593301,-0.49502 -0.676438,-0.7316 -0.05036,-0.14351 -0.05344,-0.14287 -0.07064,0.0123 -0.01035,0.0892 -0.05046,0.15961 -0.09033,0.15632 -0.0398,-0.004 -0.05787,-0.18216 -0.04011,-0.39756 0.02017,-0.24499 -3.2e-5,-0.40539 -0.05392,-0.42844 -0.05291,-0.0222 0.05938,-0.18138 0.288386,-0.40869 0.206051,-0.2045 0.377403,-0.40549 0.380795,-0.44664 0.009,-0.10971 1.485367,-0.80923 2.208883,-1.0467 2.25623,-0.74044 4.283077,-1.1113 7.377696,-1.34995 5.030028,-0.38786 9.386782,-1.15418 11.286121,-1.98508 0.992906,-0.43437 1.01793,-0.45586 1.607119,-1.3816 0.347449,-0.54594 0.394314,-0.66393 0.428492,-1.07899 0.02217,-0.26922 0.0085,-0.45079 -0.03233,-0.42997 -0.03885,0.0199 -0.08632,0.004 -0.105798,-0.0321 -0.01888,-0.0381 -0.0167,-1.71664 0.0056,-3.73094 0.03407,-3.07457 0.05864,-3.7051 0.153077,-3.92847 0.109387,-0.25855 0.10586,-0.27423 -0.122882,-0.556 -0.129411,-0.15946 -0.251079,-0.36168 -0.269328,-0.45001 -0.05864,-0.27609 -0.320544,-0.40502 -1.134608,-0.55849 -0.694089,-0.13075 -0.895506,-0.13926 -1.875005,-0.0782 -0.60358,0.0376 -2.224812,0.23589 -3.602741,0.44061 -3.226037,0.47931 -5.08231,0.71896 -7.356696,0.94982 -1.979087,0.20088 -4.574925,0.69477 -5.065112,0.96369 -0.146712,0.0805 -0.603643,0.28872 -1.015349,0.46272 -0.533735,0.22553 -0.932502,0.46132 -1.389572,0.82158 l -0.641031,0.50527 -0.30476,0.86073 c -0.256884,0.72556 -0.295126,0.8979 -0.243468,1.09744 0.04813,0.18634 -0.09915,1.24073 -0.689552,4.94983 -0.412944,2.59219 -0.75583,4.77405 -0.761966,4.84858 -0.008,0.0974 0.101924,0.0301 0.390791,-0.2376 0.221074,-0.2052 0.431209,-0.37068 0.466994,-0.36773 0.15956,0.0132 0.0063,0.22589 -0.543686,0.75461 l -0.591575,0.56872 -0.0667,0.81015 -0.0667,0.81013 0.442364,0.59457 c 0.888292,1.19398 2.47281,2.56164 4.669036,4.03 1.091538,0.72977 1.134699,0.75066 5.109702,2.47273 2.204866,0.95523 4.348686,1.88409 4.764013,2.06418 l 0.755154,0.3274 0.529656,-0.20976 0.529686,-0.20977 -1.039694,-0.44287 c -0.571819,-0.24357 -1.054395,-0.46309 -1.072371,-0.48783 -0.01803,-0.0247 -0.586222,-0.28377 -1.262743,-0.57562 -0.676527,-0.29183 -1.355547,-0.59755 -1.508931,-0.6794 -0.153402,-0.0818 -0.742661,-0.34465 -1.309498,-0.58406 -0.566844,-0.23937 -1.08488,-0.48223 -1.151216,-0.53964 -0.186471,-0.16145 -0.04958,-0.20188 0.168582,-0.0498 0.106795,0.0743 0.700302,0.35162 1.319026,0.6161 2.502812,1.0698 3.726782,1.6115 3.757096,1.66281 0.01788,0.0296 0.538405,0.26755 1.157422,0.52846 l 1.125513,0.47438 1.014527,-0.38793 c 0.707156,-0.2704 1.295492,-0.56294 1.941885,-0.9656 0.794559,-0.49491 0.993889,-0.65912 1.39229,-1.14637 l 0.464936,-0.56871 0.305378,-1.14312 c 0.423935,-1.58701 0.42392,-1.58217 0.0028,-2.30253 -0.192973,-0.33012 -0.348184,-0.63373 -0.344748,-0.6748 0.01455,-0.17681 0.163016,-0.032 0.403764,0.39408 0.14209,0.25151 0.298726,0.45271 0.348049,0.44713 0.06205,-0.007 0.09178,0.20852 0.09661,0.70216 0.0062,0.63274 -0.01865,0.79317 -0.223241,1.43731 -0.126554,0.39881 -0.235003,0.79022 -0.24083,0.86979 -0.0058,0.0796 -0.265537,0.45992 -0.577092,0.84518 -0.526706,0.65131 -0.634006,0.74197 -1.528016,1.29109 -1.007417,0.61879 -1.171761,0.68942 -5.25397,2.25813 -3.416521,1.31293 -5.338956,1.91859 -9.961028,3.13825 -2.386276,0.62967 -3.74234,0.90927 -4.642004,0.95711 -0.795793,0.0423 -1.170183,0.15337 -1.304313,0.38688 -0.06288,0.10948 -0.119445,0.15007 -0.134227,0.0959 -0.0388,-0.14311 -0.146259,-0.12142 -0.357748,0.0721 -0.233511,0.2138 -0.258042,0.41072 -0.103785,0.83409 z m 3.224135,-20.56726 c 0.0398,0.004 0.06836,0.0548 0.06345,0.1143 -0.0049,0.0595 -0.0414,0.10571 -0.08128,0.10244 -0.0398,-0.004 -0.06828,-0.0546 -0.06332,-0.11437 0.0049,-0.0596 0.04141,-0.10571 0.08119,-0.10243 z m -0.06548,0.79524 c 0.0398,0.004 0.06836,0.0548 0.06345,0.11429 -0.0049,0.0596 -0.0414,0.10571 -0.08128,0.10243 -0.0398,-0.004 -0.06828,-0.0546 -0.06332,-0.11436 0.0049,-0.0596 0.04139,-0.10572 0.08118,-0.10245 z m -0.06548,0.79525 c 0.0398,0.004 0.06831,0.0547 0.06345,0.1143 -0.0049,0.0596 -0.04141,0.10571 -0.08128,0.10243 -0.0398,-0.004 -0.06823,-0.0548 -0.06331,-0.11437 0.0049,-0.0595 0.0414,-0.10571 0.08118,-0.10244 z m 0.465216,-4.76551 c 0.0398,0.004 0.06831,0.0547 0.06345,0.1143 -0.0049,0.0596 -0.0414,0.1057 -0.08128,0.10242 -0.03958,-0.004 -0.06831,-0.0547 -0.06345,-0.1143 0.0049,-0.0595 0.04153,-0.1057 0.08128,-0.10243 z m -0.06547,0.79524 c 0.0398,0.004 0.06836,0.0547 0.06346,0.1143 -0.0049,0.0596 -0.0414,0.1057 -0.08128,0.10244 -0.03958,-0.004 -0.06831,-0.0547 -0.06345,-0.1143 0.0049,-0.0595 0.04152,-0.10572 0.08127,-0.10244 z m -0.06548,0.79526 c 0.0398,0.004 0.06831,0.0547 0.06345,0.11429 -0.0049,0.0596 -0.0414,0.10571 -0.08128,0.10244 -0.03958,-0.004 -0.06831,-0.0547 -0.06342,-0.11439 0.0049,-0.0595 0.04153,-0.10571 0.08128,-0.10242 z m -0.09323,0.85209 c 0.01659,0.054 0.0089,0.11608 -0.01735,0.13803 -0.02592,0.022 -0.03966,-0.022 -0.03017,-0.0981 0.0099,-0.0838 0.02895,-0.0996 0.04735,-0.0402 z m 0.558445,-5.61758 c 0.0398,0.004 0.06831,0.0547 0.06345,0.11429 -0.0049,0.0595 -0.04139,0.10571 -0.08128,0.10243 -0.0398,-0.004 -0.06836,-0.0548 -0.06345,-0.11429 0.0049,-0.0596 0.0414,-0.10571 0.08128,-0.10243 z m -0.06548,0.79524 c 0.0398,0.004 0.06831,0.0547 0.06345,0.11429 -0.0049,0.0596 -0.0414,0.10571 -0.08128,0.10243 -0.0398,-0.004 -0.06831,-0.0547 -0.06345,-0.11429 0.0049,-0.0596 0.04141,-0.10569 0.08128,-0.10242 z m -0.06547,0.79523 c 0.0398,0.004 0.06831,0.0547 0.06345,0.1143 -0.0049,0.0596 -0.0414,0.1057 -0.08127,0.10243 -0.0398,-0.004 -0.06831,-0.0547 -0.06345,-0.1143 0.0049,-0.0595 0.0414,-0.1057 0.08128,-0.10242 z m -0.09323,0.85209 c 0.01659,0.054 0.0089,0.11609 -0.01735,0.13804 -0.02593,0.022 -0.03966,-0.022 -0.03017,-0.0979 0.0099,-0.0841 0.02896,-0.0996 0.04735,-0.0402 z m 0.427488,-4.02709 c 0.0398,0.004 0.06828,0.0546 0.06332,0.11437 -0.0049,0.0596 -0.04152,0.10571 -0.08118,0.10244 -0.03958,-0.004 -0.06831,-0.0547 -0.06343,-0.1144 0.0049,-0.0595 0.0414,-0.1057 0.08128,-0.10242 z m -0.09323,0.85209 c 0.01659,0.054 0.0089,0.11608 -0.01735,0.13804 -0.02593,0.022 -0.03966,-0.022 -0.03017,-0.0981 0.0099,-0.0838 0.02895,-0.0996 0.04735,-0.0402 z m 2.270731,8.06136 c 0.03958,0.004 0.06965,0.0385 0.06644,0.0783 -0.0033,0.0399 -0.0385,0.0697 -0.07831,0.0664 -0.0398,-0.004 -0.06965,-0.0385 -0.06644,-0.0783 0.0032,-0.0397 0.0385,-0.0697 0.07831,-0.0664 z m 2.999429,8.87611 c 0.184984,0.0739 0.228063,0.11111 0.178328,0.15313 -0.05987,0.0507 -0.348579,-0.074 -0.342501,-0.14792 0.0031,-0.0379 0.07688,-0.0403 0.164219,-0.005 z m 0.536909,0.22205 c 0.117598,0.01 0.584627,0.27466 0.544292,0.30886 -0.05861,0.0497 -0.618652,-0.18176 -0.612773,-0.25325 0.0027,-0.0334 0.03365,-0.0586 0.06849,-0.0557 z m 3.211362,-10.38649 c 0.976489,-0.0695 1.849924,-0.13596 1.940962,-0.14767 0.09103,-0.0117 0.162746,0.0124 0.159457,0.0524 -0.0034,0.0406 -0.02048,0.0726 -0.0376,0.0712 -0.01742,-0.001 -0.849436,0.0608 -1.84921,0.13853 -1.973988,0.15321 -2.000796,0.15417 -1.993828,0.0695 0.0026,-0.0316 0.803667,-0.1143 1.780157,-0.18381 z m -2.446237,10.7047 c 0.06723,0.0344 0.177774,0.0835 0.245746,0.10936 0.101876,0.0386 0.17353,0.17952 0.08762,0.17247 -0.11922,-0.01 -0.466375,-0.21381 -0.461636,-0.27128 0.0034,-0.0412 0.05924,-0.0457 0.128307,-0.0105 z m 0.526935,18.36147 c 0.769107,-0.2297 2.092436,-0.69233 2.940716,-1.02808 2.008103,-0.7948 2.01744,-0.79815 2.066,-0.74086 0.07605,0.0896 -3.449318,1.4334 -4.906811,1.87019 -1.526185,0.45738 -1.511439,0.45374 -1.503465,0.3705 0.003,-0.0299 0.63445,-0.24208 1.40356,-0.47175 z M 47.890803,250 c 0.157076,-0.0801 0.463645,-0.14382 0.422338,-0.0879 -0.02507,0.034 -0.14597,0.0876 -0.26877,0.11937 -0.213178,0.0552 -0.291999,0.039 -0.153602,-0.0315 z m 2.51165,-14.46585 c 0.03958,0.004 0.06965,0.0385 0.06644,0.0783 -0.0032,0.0397 -0.03851,0.0696 -0.07831,0.0664 -0.0398,-0.004 -0.06957,-0.0386 -0.06634,-0.0782 0.0032,-0.0397 0.03849,-0.0697 0.07821,-0.0664 z m 1.175669,13.1253 c 0.0398,0.004 0.06962,0.0384 0.06632,0.0782 -0.0033,0.0399 -0.03843,0.0696 -0.07822,0.0663 -0.0398,-0.004 -0.06968,-0.0385 -0.06638,-0.0783 0.0033,-0.0396 0.0385,-0.0696 0.07829,-0.0665 z m -15.034608,16.95836 c 0.06319,0.005 0.373332,0.11089 0.689144,0.23507 0.835177,0.32811 2.512205,0.7354 4.097862,0.9955 1.79526,0.29418 3.155783,0.70026 5.556482,1.65845 1.027081,0.40995 1.94495,0.77115 2.03969,0.80271 0.09471,0.0315 0.985682,0.7472 1.979826,1.59037 1.570155,1.33167 2.206407,1.84681 3.937495,3.18797 0.183043,0.14176 0.720604,0.52067 1.194535,0.84189 0.47396,0.32123 1.062594,0.73023 1.308078,0.90892 l 0.446351,0.32493 0.07266,-0.37064 c 0.08437,-0.42997 0.206234,-0.68978 0.381023,-0.81207 0.06813,-0.0478 0.125373,-0.10706 0.127125,-0.13206 0.0018,-0.0251 -0.239137,-0.2783 -0.53536,-0.56285 -0.296229,-0.28456 -0.534245,-0.57261 -0.529043,-0.63999 0.0054,-0.0674 -0.0875,-0.38618 -0.20607,-0.70842 -0.199598,-0.54243 -0.215629,-0.66951 -0.216141,-1.71408 -3.91e-4,-0.62052 0.07101,-2.28505 0.158664,-3.69896 l 0.159185,-2.57076 -0.273515,-0.89594 c -0.150448,-0.49276 -0.307777,-0.99052 -0.349658,-1.10612 -0.09752,-0.2693 -2.343829,-2.62944 -2.578654,-2.70935 -0.109871,-0.0373 -0.227425,-0.0248 -0.309437,0.0344 -0.333098,0.2387 -2.772697,1.40576 -4.031664,1.92886 -3.331696,1.38431 -7.978431,2.55732 -10.480568,2.64572 -1.511816,0.0534 -2.039502,0.12982 -2.217186,0.32106 -0.169344,0.18219 -0.574757,0.31613 -0.629895,0.20797 -0.01908,-0.0384 0.04913,-0.0832 0.152424,-0.0999 0.103128,-0.0171 0.189887,-0.0599 0.192819,-0.0954 0.0074,-0.0905 -0.119481,-0.0909 -0.186255,-4.6e-4 -0.03059,0.0413 -0.153807,0.0525 -0.273945,0.0245 l -0.218491,-0.0505 0.213838,0.22526 c 0.117681,0.12389 0.265542,0.22951 0.328764,0.2347 z m 6.532097,0.56009 c 0.09771,0.0301 0.633826,0.18074 1.191662,0.33389 0.750383,0.20592 1.012017,0.30559 1.005639,0.38305 -0.0047,0.0577 -0.03921,0.082 -0.07688,0.0541 -0.0376,-0.0276 -0.53692,-0.18323 -1.109643,-0.3458 -0.572717,-0.16256 -1.074372,-0.33715 -1.114743,-0.38824 -0.05593,-0.0708 -0.03121,-0.0796 0.10405,-0.0372 z m 4.239109,1.4914 c 0.08478,0.007 0.145938,0.0593 0.140856,0.12071 -0.0049,0.0595 -0.02753,0.1068 -0.05018,0.10499 -0.0229,-10e-4 -0.08604,-0.0561 -0.140849,-0.12071 -0.08846,-0.10427 -0.08319,-0.11574 0.05018,-0.105 z m 2.133089,-4.62818 c 0.0398,0.004 0.06968,0.0385 0.06638,0.0783 -0.0033,0.0396 -0.0385,0.0696 -0.07829,0.0665 -0.03961,-0.004 -0.06968,-0.0385 -0.06644,-0.0783 0.0033,-0.0399 0.03843,-0.0697 0.07831,-0.0664 z m 5.955653,0.36263 c 0.04781,0.02 0.192924,0.39255 0.322466,0.82698 l 0.235557,0.78983 -0.182069,2.70251 c -0.100107,1.48641 -0.182311,3.18675 -0.182518,3.77856 -3.57e-4,0.95733 -0.03256,1.23878 -0.128672,1.12531 -0.08356,-0.0986 -0.03058,-2.02552 0.127966,-4.65771 l 0.177761,-2.95113 -0.231819,-0.78699 c -0.259359,-0.88051 -0.259095,-0.87887 -0.13856,-0.82735 z m 0.485987,10.17136 c 0.117658,0.17151 0.125589,0.26936 0.02077,0.26076 -0.0398,-0.004 -0.0698,-0.0359 -0.0668,-0.0723 0.003,-0.0364 -0.0086,-0.12754 -0.02559,-0.20226 -0.0286,-0.1244 -0.0224,-0.12314 0.07186,0.0125 z M 43.916592,191.87494 c 0.237996,3.33725 0.759491,6.74004 1.307951,8.53441 0.398298,1.30319 1.058845,2.5669 1.979461,3.78711 l 0.577194,0.76493 0.761102,0.24953 0.76109,0.24952 0.832159,-0.25746 c 0.658508,-0.20373 0.935993,-0.3345 1.329692,-0.62661 0.273635,-0.20303 0.500754,-0.40842 0.504705,-0.45643 0.004,-0.048 0.192555,-0.15997 0.41913,-0.24884 0.317331,-0.12449 0.403578,-0.19027 0.375523,-0.28637 -0.03236,-0.11048 0.0055,-0.11561 0.331472,-0.0447 0.313431,0.0676 0.363006,0.063 0.334581,-0.0344 -0.07392,-0.2528 0.186699,-0.0737 0.567785,0.39016 0.820369,0.9987 1.325296,1.87483 1.747723,3.03287 0.847458,2.32305 1.506634,6.34669 1.864862,11.38321 0.06327,0.8887 0.123345,1.62575 0.133654,1.63789 0.01098,0.0119 0.38993,2.6e-4 0.843602,-0.0263 l 0.824893,-0.0483 -0.02303,-0.18987 c -0.01275,-0.10455 -0.06844,-0.84871 -0.123816,-1.65389 -0.341553,-4.96325 -1.062343,-9.27706 -1.955757,-11.70483 -0.345084,-0.93774 -0.530392,-1.31562 -0.98226,-2.00293 -0.306335,-0.46589 -0.814849,-1.13585 -1.130052,-1.4888 -0.618483,-0.69245 -0.604005,-0.68482 -1.612313,-0.85017 l -0.553966,-0.0907 -0.845308,0.35443 c -0.639603,0.26819 -0.995931,0.47445 -1.464312,0.84761 -0.468191,0.37299 -0.756616,0.53997 -1.183902,0.68539 -0.629497,0.21423 -0.722415,0.2259 -0.653133,0.0819 0.03325,-0.0692 -0.0315,-0.1249 -0.213583,-0.18429 -0.162256,-0.0529 -0.258179,-0.12807 -0.253102,-0.19817 0.0046,-0.0621 -0.155132,-0.35241 -0.354792,-0.64495 -1.00249,-1.46881 -1.560442,-2.91162 -1.863995,-4.81784 -0.123561,-0.77596 -0.181999,-0.9821 -0.289066,-1.0197 -0.07371,-0.0263 -0.109442,-0.0807 -0.07971,-0.12128 0.03008,-0.041 0.08692,-0.0506 0.126157,-0.0217 0.044,0.0324 0.05941,-0.001 0.04016,-0.0865 -0.108675,-0.48542 -0.406505,-2.67551 -0.434188,-3.19281 -0.129542,-2.42028 -0.990682,-8.06889 -1.178049,-9.13986 -0.117459,-0.67133 -0.225023,-1.23412 -0.239044,-1.25065 -0.01389,-0.0167 -0.240913,0.0138 -0.504216,0.0673 -0.263295,0.0536 -0.597058,0.10684 -0.741697,0.11832 l -0.26297,0.0209 0.876329,4.64813 c 0.149241,0.83268 0.27234,2.00457 0.40289,3.83506 z m -0.694168,-8.68358 c 0.25803,-0.038 0.553405,-0.098 0.656379,-0.13323 0.1658,-0.0567 0.153804,-0.0626 -0.104844,-0.0517 -0.364118,0.0154 -1.095566,0.16581 -1.052558,0.21653 0.01777,0.0205 0.243002,0.007 0.501086,-0.0317 z m 16.791658,65.21047 c 0.06467,0.0817 0.09658,-0.14115 0.276746,-1.92652 0.161095,-1.59714 0.173728,-1.86151 0.07836,-1.64399 -0.06242,0.14253 -0.127174,0.27058 -0.143594,0.28451 -0.03877,0.0327 -0.245539,3.24317 -0.211644,3.28598 z m -2.000948,27.85699 c 0.01478,0.12777 0.08143,0.26745 0.147999,0.31043 0.06668,0.043 0.581024,0.20702 1.143138,0.36451 1.00645,0.28188 1.040345,0.28649 2.221677,0.30221 1.116684,0.0148 1.286744,-0.003 2.459415,-0.2565 0.861501,-0.18635 1.697777,-0.43391 2.645213,-0.78308 1.959596,-0.72225 3.808637,-1.22351 5.475011,-1.48427 2.900073,-0.45378 5.26442,-0.28359 8.103906,0.58326 1.265155,0.38629 3.791539,1.38613 4.007199,1.58592 0.28144,0.26076 2.616823,1.42535 3.681031,1.83565 1.136182,0.43806 1.293861,0.48079 1.979224,0.53647 0.815408,0.0664 0.842977,0.0593 1.771458,-0.41357 0.782631,-0.39904 0.808637,-0.44488 0.833634,-1.47028 0.01572,-0.6466 -0.0084,-0.91065 -0.101601,-1.10957 -0.06726,-0.14355 -0.183205,-0.47454 -0.257637,-0.7355 -0.07443,-0.26096 -0.896038,-4.52524 -0.896038,-4.52524 l -0.408048,-1.1136 -1.710888,0.24448 c 0,0 0.939519,4.57435 1.098739,4.90208 0.159192,0.32777 0.339457,0.77198 0.400534,0.98717 0.06105,0.21518 0.141234,0.39375 0.178128,0.39679 0.03694,0.003 0.05883,0.11142 0.0489,0.24059 -0.02789,0.35096 0.04391,0.44289 0.288349,0.3723 0.44585,-0.12878 0.465574,0.0373 0.02583,0.21767 -0.165706,0.068 -0.304969,0.1684 -0.309713,0.22263 -0.01317,0.16009 -0.219791,0.1784 -0.874696,0.0776 -0.867399,-0.1334 -2.254057,-0.69875 -3.734314,-1.52226 -1.692765,-0.94172 -3.773257,-1.83622 -5.52123,-2.37381 -1.164031,-0.358 -1.695824,-0.48046 -2.952316,-0.68023 -1.492636,-0.23725 -1.572629,-0.24281 -3.07127,-0.21434 -1.214746,0.023 -1.819271,0.0749 -2.871171,0.24638 -1.640283,0.26739 -3.786296,0.85264 -5.636361,1.5371 -1.915336,0.7086 -3.294805,1.00099 -4.68075,0.99213 -0.552479,-0.003 -1.041013,-0.0334 -1.085639,-0.0663 -0.172303,-0.12729 -1.715065,-0.51102 -1.871779,-0.46615 -0.18358,0.053 -0.505543,0.55766 -0.533876,0.83685 -0.0096,0.10429 -0.007,0.294 0.0077,0.42174 z"
                id="path4618"
                inkscape:connector-curvature="0"
                sodipodi:nodetypes="cccsccccccccscccccssscsccscsccccsscsccccscccccscscccccccccsccscccsccccccccccccccscccscccccsccccccsccccccccsccccscccccscccsccccscccccsscccccssccscscsccscssccsccccccscssccsssscsccsccssccccccccccscscccccsccccccccccccccscccccscscccccccccccccccsssssssssssssssssssssssssssssssccccssssssssssscsssccsccssscscccscsssscccscsscssccsscscccscccsccscccccccsssssssssssccccccccccccsccsscscccsccccscsccsccscsccssscssscsscccccccccccssccssccccccsccsccssccccsscsccsccccccscccccccccccsccccccccccccccccccccccccccscccsscccscccscccccccccccccccccccccacccccccc"/>
        <path
                style="fill:#000000;stroke:#000000;stroke-width:0.2;stroke-miterlimit:4;stroke-dasharray:none;stroke-opacity:1"
                d="m 183.88626,183.19447 c 0.13274,-0.027 0.8712,-0.19664 1.51846,-0.19394 0.64726,0.003 2.29011,-0.11846 3.65081,-0.26935 5.70612,-0.63267 8.2277,-0.51874 11.08348,0.50094 3.57208,1.27541 5.83996,3.15152 8.17018,6.75874 1.57247,2.43425 3.25632,4.03653 4.9408,4.70143 l 0.75777,0.29911 0.37168,-1.43916 c 0.2905,-1.1246 0.43505,-1.50552 0.66043,-1.74321 l 0.28873,-0.30408 2.94014,0.75094 c 1.61711,0.41301 3.72898,0.96205 4.6931,1.22007 0.96413,0.25802 2.69581,0.63696 3.84817,0.84206 2.9445,0.5241 15.56995,4.1724 17.79603,5.14236 1.67285,0.72895 6.39052,2.98597 8.44245,4.03906 1.63393,0.83855 1.99975,1.00272 3.71189,1.66594 l 1.26022,0.48818 0.90072,-0.24605 c 1.53358,-0.41948 3.56017,-0.60379 5.3094,-0.48292 1.60646,0.11103 1.63331,0.11722 2.45596,0.56508 0.56814,0.30926 1.13524,0.5187 1.7893,0.66063 l 0.95755,0.2078 0.65274,1.10901 0.65272,1.10901 -0.66904,0.29102 c -1.07311,0.46684 -2.14452,1.1217 -2.55633,1.56256 -0.21011,0.22489 -0.70985,0.70844 -1.11053,1.07456 l -0.72855,0.66563 -0.66189,-0.19039 c -0.36426,-0.10403 -1.15629,-0.40077 -1.76063,-0.65757 -0.93757,-0.39836 -1.50535,-0.54438 -3.86877,-0.99501 -2.3332,-0.44486 -3.01512,-0.52659 -4.32477,-0.51851 -1.93566,0.012 -2.67405,-0.0924 -5.66652,-0.80166 -3.26061,-0.77274 -3.87824,-0.89574 -6.52771,-1.30003 -2.77268,-0.42309 -9.05351,-1.83564 -14.81833,-3.33266 -3.94722,-1.02501 -8.07152,-1.97639 -10.95932,-2.52804 -0.67704,-0.12936 -1.93901,-0.43839 -2.80439,-0.68679 l -1.5734,-0.45165 0.056,-0.47091 c 0.0308,-0.25902 0.211,-1.01062 0.40042,-1.67024 0.18971,-0.65951 0.31929,-1.28561 0.28868,-1.39109 -0.0339,-0.11746 -0.45035,-0.35489 -1.07153,-0.61142 -2.07192,-0.85582 -4.06433,-2.688 -5.6923,-5.23454 -2.23017,-3.48859 -4.45075,-5.30987 -7.68257,-6.30114 -2.53068,-0.77621 -4.49235,-0.81059 -10.18554,-0.1786 -1.14439,0.12706 -2.71946,0.23345 -3.50015,0.23649 -1.63231,0.006 -1.18493,0.44282 -1.18694,-0.66535 -0.002,-0.87686 -1.01542,-0.97764 -0.72123,-1.03676 z m 0.64957,1.04063 c 0.0225,0.2005 -0.46334,-0.0654 0.13429,-0.0757 1.98828,-0.0341 3.34184,-0.0969 3.88483,-0.18033 2.67473,-0.41076 7.98179,-0.64425 7.8957,-0.34739 -0.0137,0.0471 -0.62152,0.0772 -1.35088,0.0664 -1.73112,-0.0249 -3.09842,0.0514 -4.91905,0.27467 -1.89761,0.23271 -3.86832,0.38496 -5.14955,0.39766 -0.97449,0.01 -0.62837,0.35418 -0.4221,0.58238 0.15773,0.1744 1.81208,-0.17284 4.04414,-0.41672 7.16024,-0.78222 9.54835,-0.54194 13.05543,1.31356 1.95244,1.03299 3.52306,2.61932 5.2031,5.25524 1.6543,2.59551 3.75165,4.50097 5.78559,5.25619 l 1.08482,0.4028 0.1786,-0.30613 c 0.0982,-0.16839 0.18948,-0.47094 0.20285,-0.67232 0.0268,-0.407 -0.0534,-0.46632 -1.23148,-0.90918 -1.54344,-0.58024 -3.42328,-2.37395 -4.82975,-4.60853 -1.60817,-2.55507 -3.59321,-4.57131 -5.53308,-5.62006 -2.99851,-1.62107 -5.7926,-2.19025 -9.61457,-1.95853 -0.54456,0.033 -2.34367,0.19151 -3.99798,0.35226 -1.65433,0.16068 -3.43158,0.29175 -3.94947,0.29117 -0.95749,-0.001 -0.53341,0.35518 -0.47146,0.9024 z m 12.53835,-0.51361 c 0.1648,0.0477 0.2243,0.0946 0.13209,0.10421 -0.0919,0.01 -0.22681,-0.0301 -0.29958,-0.0868 -0.0727,-0.0572 0.002,-0.0648 0.16726,-0.0172 z m 1.63288,0.19317 c 0.066,0.0186 0.10442,0.0884 0.0851,0.15463 -0.0191,0.0657 -0.0884,0.10441 -0.15463,0.0851 -0.0661,-0.0187 -0.10441,-0.0884 -0.085,-0.15463 0.0191,-0.0657 0.0884,-0.10441 0.1546,-0.0851 z m 1.28348,0.50212 c 0.0661,0.0187 0.10441,0.0884 0.0851,0.15462 -0.0191,0.0657 -0.0884,0.10441 -0.15461,0.085 -0.066,-0.0186 -0.10441,-0.0884 -0.0851,-0.15461 0.0191,-0.0658 0.0884,-0.10441 0.15461,-0.085 z m 0.47933,0.13906 c 0.066,0.0186 0.10441,0.0884 0.085,0.15462 -0.0191,0.0657 -0.0884,0.10441 -0.15461,0.085 -0.0661,-0.0187 -0.10441,-0.0884 -0.085,-0.15462 0.0192,-0.0659 0.0884,-0.10441 0.15461,-0.0851 z m 0.35952,0.10428 c 0.0661,0.0187 0.10441,0.0884 0.0851,0.15461 -0.0191,0.0657 -0.0884,0.10441 -0.15462,0.085 -0.0661,-0.0187 -0.10441,-0.0884 -0.085,-0.15462 0.0191,-0.0658 0.0884,-0.10442 0.15462,-0.085 z m 0.26979,0.21143 c 0.0622,0.0192 0.54185,0.27067 1.0659,0.55796 1.96718,1.07841 3.62598,2.84614 5.66317,6.035 0.53043,0.83029 2.2567,2.63351 3.14322,3.28332 1.02044,0.74788 1.0718,0.79398 0.95137,0.86043 -0.0429,0.0233 -0.55521,-0.30968 -1.13853,-0.74056 -1.30693,-0.96537 -2.53692,-2.33191 -3.61172,-4.01275 -1.59532,-2.49488 -3.457,-4.42112 -5.085,-5.26135 -0.51396,-0.26531 -0.97208,-0.54427 -1.01799,-0.62001 -0.0527,-0.087 -0.0417,-0.12461 0.0296,-0.10205 z m 13.4373,9.25485 c -0.13668,0.68168 -0.14085,0.92508 -0.0157,0.91454 0.17538,-0.0152 -0.0246,0.65699 -0.78788,2.64488 -0.30481,0.79398 -0.70055,2.68832 -0.45533,2.17969 0.12538,-0.25993 0.321,-0.30206 0.33351,-0.0717 0.0155,0.2822 2.16497,1.03346 5.76045,2.01302 4.86233,1.32473 11.60401,3.05967 14.32593,3.68669 5.7149,1.3165 6.72882,1.52842 8.83418,1.84625 1.24046,0.18725 3.15492,0.54063 4.25434,0.78544 6.85241,1.52519 5.85797,1.39371 10.33745,1.36687 1.66363,-0.01 2.99608,-0.0688 2.96104,-0.13083 -0.0358,-0.0616 -1.0897,-0.50583 -2.34369,-0.98643 -2.79656,-1.07178 -4.36528,-1.76409 -5.49649,-2.42568 -0.47511,-0.2779 -1.75209,-0.97032 -2.83767,-1.53879 -1.0856,-0.56844 -2.43971,-1.34215 -3.00914,-1.71931 -2.32006,-1.53678 -4.66793,-2.57716 -11.05179,-4.89714 -1.00193,-0.36412 -2.87408,-1.06498 -4.16035,-1.55745 -2.09003,-0.80022 -2.95453,-1.05768 -8.1319,-2.42207 -3.18629,-0.83966 -6.18396,-1.64091 -6.6615,-1.78058 -0.53872,-0.15781 -0.88237,-0.20515 -0.90548,-0.12548 -0.0204,0.0706 -0.14194,0.18557 -0.26916,0.25601 -0.25438,0.14002 -0.39886,0.55653 -0.68074,1.96195 z m 0.69352,-1.78195 c 0.066,0.0186 0.0886,0.14264 0.0504,0.27439 -0.0383,0.13185 -0.12342,0.22405 -0.18936,0.20492 -0.066,-0.0186 -0.0884,-0.14266 -0.0503,-0.27444 0.0383,-0.13183 0.12342,-0.22403 0.18936,-0.2049 z m -0.19114,0.65912 c 0.0802,-0.0223 0.10279,0.0934 0.0524,0.26734 -0.0489,0.16865 -0.14284,0.29102 -0.2091,0.27166 -0.066,-0.0186 -0.0894,-0.13942 -0.0523,-0.26739 0.0371,-0.12792 0.13101,-0.25031 0.2091,-0.27166 z m -0.13784,0.77199 c 0.01,0.0919 -0.0299,0.22685 -0.0869,0.29959 -0.0572,0.0727 -0.0649,-0.002 -0.0172,-0.16725 0.0477,-0.16483 0.0945,-0.22435 0.1042,-0.13208 z m -0.14197,0.64089 c 0.0661,0.0187 0.0973,0.11249 0.0698,0.20744 -0.0275,0.0949 -0.11363,0.19038 -0.19139,0.21198 -0.0777,0.0216 -0.10907,-0.0719 -0.0698,-0.20746 0.0395,-0.13569 0.12547,-0.23107 0.19141,-0.21197 z m -0.64473,2.67118 c 0.0661,0.0187 0.0884,0.14268 0.0504,0.27441 -0.0383,0.13184 -0.1234,0.22404 -0.18934,0.20492 -0.066,-0.0186 -0.0884,-0.14266 -0.0503,-0.27442 0.0383,-0.13183 0.12341,-0.22404 0.18935,-0.20493 z m -0.17377,0.59921 c 0.0661,0.0187 0.0884,0.14265 0.0503,0.27444 -0.0383,0.13184 -0.12342,0.22404 -0.18935,0.20491 -0.0661,-0.0187 -0.0884,-0.14265 -0.0503,-0.27445 0.0383,-0.13183 0.12341,-0.22401 0.18933,-0.20489 z m -0.20852,0.71901 c 0.0661,0.0187 0.0884,0.14266 0.0504,0.27441 -0.0383,0.13183 -0.12343,0.22405 -0.18934,0.2049 -0.0661,-0.0187 -0.0884,-0.14265 -0.0503,-0.27443 0.0383,-0.13185 0.1234,-0.22403 0.18934,-0.20492 z m -0.12047,0.71209 c 0.01,0.0919 -0.0299,0.22684 -0.0869,0.29959 -0.0572,0.0727 -0.0647,-0.002 -0.0172,-0.16727 0.0477,-0.1648 0.0945,-0.22434 0.10419,-0.13208 z m 0.66678,1.77192 c 0.64448,0.17993 1.64189,0.41966 2.21639,0.53299 l 1.04456,0.206 -0.9329,-0.29064 c -0.51312,-0.1598 -1.42948,-0.5004 -2.03642,-0.75675 -0.91477,-0.38638 -1.12953,-0.44313 -1.25561,-0.33167 -0.29005,0.25637 -0.20209,0.31475 0.96399,0.64006 z m 16.09573,-5.19801 c 0.80122,0.30715 2.59276,0.97546 3.98122,1.4851 7.62619,2.79933 10.45417,4.03438 12.31644,5.37876 0.59993,0.43309 2.1053,1.28889 3.53442,2.00922 0.62341,0.31423 1.66095,0.86921 2.30562,1.23329 0.64471,0.36405 1.84881,0.94946 2.67582,1.30079 1.92519,0.81785 5.64825,2.27529 5.71513,2.23723 0.0281,-0.0163 0.0948,-0.51345 0.14807,-1.10538 l 0.0968,-1.0762 -1.63515,-0.63336 c -4.53479,-1.75646 -5.56574,-2.18314 -6.4957,-2.68832 -0.55554,-0.3018 -1.88581,-0.95614 -2.9561,-1.45413 -1.0703,-0.49799 -2.45468,-1.1673 -3.0764,-1.48738 -1.9768,-1.01779 -4.26885,-1.87753 -8.49484,-3.18649 -3.58098,-1.10914 -9.6857,-2.77806 -9.60134,-2.62475 0.0156,0.0295 0.68481,0.30448 1.48602,0.61162 z m 29.94273,10.7437 1.0779,0.31492 -0.41294,-0.3679 c -0.88169,-0.78536 -1.13079,-0.89133 -1.73292,-0.73708 -0.53673,0.13755 -0.54337,0.14433 -0.2797,0.30787 0.14837,0.0919 0.75488,0.30881 1.34773,0.48208 z m 0.57648,3.89001 c 1.20801,0.23452 2.22145,0.41257 2.25206,0.39577 0.0306,-0.017 -0.17342,-0.24464 -0.45345,-0.50612 -0.55326,-0.51672 -0.54865,-0.491 -0.36182,-2.04502 l 0.11809,-0.98202 -0.44758,-0.0437 c -0.24613,-0.0242 -0.47568,-0.0287 -0.51006,-0.01 -0.0341,0.0191 -0.12711,0.58126 -0.20619,1.25027 -0.17071,1.44648 -0.11664,1.40074 -1.64769,1.39426 -0.5546,-0.002 -0.99298,0.0237 -0.97413,0.058 0.0191,0.0342 1.02264,0.2542 2.23068,0.48869 z m 0.31313,-4.18885 c 0.45274,0.33137 1.00393,0.69858 1.22492,0.81595 0.22104,0.11729 0.94361,0.66353 1.60567,1.21385 0.66218,0.55015 1.32348,1.09212 1.46952,1.20447 0.35302,0.27147 1.11437,0.63714 1.14027,0.54786 0.0164,-0.0564 -0.89174,-4.50899 -0.93224,-4.57094 -0.005,-0.0105 -0.72445,-0.0613 -1.59659,-0.11574 -1.43957,-0.09 -3.65685,0.0466 -3.7124,0.22865 -0.0121,0.0404 0.34795,0.34469 0.80069,0.67608 z m 1.32011,2.33584 c -0.0439,0.4113 -0.0796,0.84741 -0.0794,0.96918 6.8e-4,0.44101 1.9252,2.09088 2.70159,2.31604 0.33139,0.0961 0.45548,0.0379 1.0339,-0.48556 0.3615,-0.32717 0.65021,-0.67868 0.64155,-0.78116 -0.009,-0.10252 -0.21153,-0.27762 -0.45088,-0.38917 -0.88169,-0.41083 -1.73883,-0.97721 -2.63903,-1.74367 -0.50776,-0.4324 -0.95659,-0.79575 -0.99731,-0.80758 -0.0995,-0.0288 -0.11793,0.0512 -0.21046,0.92195 z m 4.24966,0.087 c 0.1945,0.86026 0.40428,1.57876 0.46605,1.59669 0.0618,0.0179 0.19377,-0.12388 0.29321,-0.3152 0.0995,-0.19125 0.19895,-0.28725 0.221,-0.21325 0.0221,0.074 0.26001,-0.0186 0.52873,-0.20637 0.26873,-0.18748 0.82992,-0.47489 1.24706,-0.6387 l 0.75852,-0.29778 -1.05861,-0.90729 c -0.81976,-0.70256 -2.64155,-1.89764 -3.09184,-2.02822 -0.0327,-0.009 0.0177,0.31201 0.11152,0.71439 0.0939,0.40237 0.32987,1.4354 0.52438,2.2957 z m 0.91995,0.42917 c 0.13174,0.0383 0.22402,0.12342 0.2049,0.18934 -0.0191,0.0657 -0.0884,0.10441 -0.15463,0.085 -0.066,-0.0186 -0.14328,0.046 -0.17196,0.14504 -0.0286,0.0988 -0.10604,0.1641 -0.17198,0.14503 -0.066,-0.0186 -0.081,-0.16945 -0.0326,-0.3344 0.0638,-0.21969 0.15076,-0.28108 0.32659,-0.23006 z m 0.59081,-2.03724 c 0.066,0.0186 0.10441,0.0884 0.085,0.15462 -0.0191,0.0657 -0.0884,0.10441 -0.15461,0.085 -0.066,-0.0186 -0.10442,-0.0884 -0.0851,-0.15462 0.0192,-0.0659 0.0884,-0.10442 0.15461,-0.085 z m -0.16157,0.60273 c 0.14506,-0.11445 0.15357,-0.0927 0.0428,0.11012 -0.0756,0.13886 -0.0885,0.26662 -0.0286,0.28399 0.0597,0.0177 0.0851,0.11246 0.0561,0.21138 -0.0286,0.0988 -0.13304,0.15629 -0.23187,0.12762 -0.20974,-0.0609 -0.10898,-0.51981 0.16088,-0.73286 z m -0.17045,0.9899 c 0.0661,0.0187 0.10442,0.0884 0.0851,0.15463 -0.0191,0.0657 -0.0884,0.10441 -0.15461,0.0851 -0.0661,-0.0187 -0.10441,-0.0884 -0.085,-0.1546 0.0191,-0.0658 0.0884,-0.10441 0.15463,-0.0851 z m 1.38879,-1.30824 0.57101,0.5982 -0.33193,-0.62632 c -0.1826,-0.34446 -0.42884,-0.6544 -0.54727,-0.68875 -0.3709,-0.10764 -0.28258,0.0979 0.30821,0.71685 z"
                id="path4620"
                inkscape:connector-curvature="0"
                sodipodi:nodetypes="ccccccccccccccccccccccccccccccsccscccccccccccccccccccccccscccccccccccccccccccccccccccccccccccccccccccccccccccccccccccccccccccccccsccccccccsccccccccccccccccccccscccccccccccccccccccccccccscccccccccccscccccccccccccccsccccccccccsccccccccccccccccccccccccccccccccccccccccccccccccccccccccccccccccc"/>
        <path
                style="fill:#000000;stroke:#000000;stroke-width:0.29507947;stroke-miterlimit:4;stroke-dasharray:none;stroke-opacity:1"
                d="m 238.87677,268.33775 c -0.30902,1.16974 -0.38772,1.37469 -1.03472,2.69445 -0.51484,1.05027 -0.88449,1.69527 -1.39603,2.43633 l -0.69572,1.00787 -1.05383,0.78289 -1.05381,0.78288 -1.35553,0.49443 c -1.18832,0.43345 -1.51829,0.52313 -2.67511,0.72703 -2.08521,0.36757 -4.01741,0.83995 -5.2075,1.27315 -0.86074,0.31331 -1.22859,0.49096 -1.897,0.91624 -0.78533,0.49966 -0.85906,0.56633 -1.39428,1.2607 -1.08914,1.41299 -1.83187,3.31469 -2.22116,5.68607 -0.17497,1.06677 -0.23718,1.29165 -0.64368,2.326 -0.48457,1.23137 -0.5718,1.36251 -1.62343,2.42236 -0.37531,0.37822 -0.48943,0.44509 -1.39197,0.81577 -1.21093,0.49735 -2.80057,0.86588 -4.53604,1.05162 l -1.18359,0.12666 -1.4514,-0.17236 c -1.34129,-0.15932 -1.57931,-0.20928 -3.13677,-0.65891 -1.57375,-0.4543 -1.77224,-0.52986 -2.99765,-1.14121 -1.16684,-0.5821 -1.42395,-0.74259 -2.3194,-1.44764 -1.29651,-1.02085 -3.0265,-2.70527 -4.04997,-3.9433 -0.73841,-0.89321 -0.83169,-1.03793 -1.10527,-1.71472 -0.33233,-0.82216 -0.35011,-0.99786 -0.21364,-2.11222 0.0649,-0.52994 0.14534,-0.8049 0.4276,-1.46083 0.19119,-0.44444 0.3883,-1.02457 0.43796,-1.28921 0.0848,-0.45217 0.0806,-0.5133 -0.0694,-1.01417 -0.10929,-0.36511 -0.29005,-0.73031 -0.57375,-1.15944 -0.34218,-0.5176 -0.54301,-0.73225 -1.15561,-1.23512 -1.93099,-1.58514 -3.64627,-2.57478 -5.77889,-3.33418 -0.68289,-0.24315 -2.04005,-0.77292 -3.01594,-1.17715 -0.97587,-0.4043 -2.6637,-1.10193 -3.75075,-1.55027 -1.08706,-0.44835 -2.37043,-1.00862 -2.38998,-1.02848 -0.12891,-0.13104 -0.1591,-2.76167 0.0254,-2.76017 0.1159,5e-4 3.43912,2.04128 6.51374,3.33691 1.0741,0.45262 2.57442,1.04709 3.33406,1.321 2.34905,0.84709 4.33201,2.00075 6.36712,3.7043 0.75435,0.63146 0.86668,0.75756 1.4628,1.64202 0.53839,0.79883 0.68297,1.07181 0.87003,1.64273 0.25493,0.77802 0.27077,1.07238 0.11172,2.07518 -0.0747,0.47113 -0.20732,0.92075 -0.44217,1.49944 -0.18608,0.45939 -0.35658,1.00085 -0.38289,1.2189 -0.0715,0.59076 0.231,1.2561 0.96834,2.12998 0.85685,1.01555 2.45556,2.56028 3.53904,3.41954 0.81896,0.64951 1.16038,0.86774 2.15106,1.37496 1.09481,0.56054 1.28433,0.63285 2.69593,1.02862 1.27476,0.35741 1.70483,0.44694 2.68081,0.55807 1.11309,0.12672 1.20701,0.12769 2.20978,0.0232 1.3562,-0.14133 2.99259,-0.49811 3.91348,-0.85327 0.69877,-0.26951 0.75079,-0.3037 1.19496,-0.7854 0.40956,-0.4442 0.50604,-0.60375 0.81743,-1.35184 0.2942,-0.70659 0.38424,-1.02728 0.53969,-1.92141 0.27522,-1.58247 0.84081,-3.38589 1.46254,-4.66328 0.41636,-0.85535 0.62137,-1.18163 1.21743,-1.93685 l 0.71679,-0.9082 1.07304,-0.68401 c 0.96886,-0.61762 1.19148,-0.72704 2.29299,-1.12718 1.36136,-0.49452 3.17071,-0.94862 5.24777,-1.31703 1.09602,-0.1944 1.52527,-0.30754 2.53356,-0.66778 1.17544,-0.41997 1.24021,-0.45308 2.043,-1.04465 0.8277,-0.6099 0.83009,-0.61246 1.44631,-1.55186 0.88964,-1.35625 1.61439,-2.90091 1.95819,-4.17349 l 0.27323,-1.01136 0.003,-1.31767 c 0.003,-1.23888 -0.0117,-1.39654 -0.2461,-2.63737 -0.21748,-1.15142 -0.30857,-1.47166 -0.71422,-2.51101 -0.5126,-1.31324 -1.04841,-2.2785 -2.40845,-4.33869 -0.43201,-0.65443 -1.04107,-1.63701 -1.35345,-2.18355 -0.9742,-1.70435 -1.73865,-2.80581 -2.5776,-3.71391 -0.7005,-0.75823 -0.87355,-0.90227 -1.85086,-1.54057 -0.84554,-0.55225 -1.3105,-0.80169 -2.15555,-1.1564 -0.97393,-0.40883 -1.17494,-0.46747 -2.08975,-0.61506 -1.36238,-0.21909 -3.16708,-0.21937 -4.9449,-9.2e-4 l -1.2296,0.15113 -0.96536,0.47372 c -0.89623,0.43981 -1.03403,0.53423 -1.92405,1.31835 -0.57396,0.5057 -1.2844,1.22295 -1.77033,1.78732 -0.44643,0.51846 -1.32097,1.45067 -1.94344,2.07156 -1.03573,1.03312 -1.23345,1.19599 -2.33019,1.91951 l -1.19841,0.79061 -1.23292,0.36562 -1.23294,0.36565 -0.97409,-0.008 c -1.39358,-0.0116 -2.2004,-0.15369 -2.959,-0.5217 -0.87592,-0.4249 -2.14829,-1.28433 -2.68154,-1.81121 -0.25264,-0.24963 -0.97564,-1.07799 -1.60666,-1.84082 -0.63101,-0.76282 -1.19246,-1.44019 -1.24767,-1.50533 -0.11218,-0.13225 -1.27877,-0.92908 -2.55349,-1.74405 -1.46809,-0.93862 -2.86396,-1.99859 -3.81465,-2.89668 -0.88743,-0.83839 -1.87725,-1.62975 -3.63836,-2.909 -1.63724,-1.18923 -1.16694,-2.38585 -1.16496,-2.5432 0.005,-0.36604 0.78576,-1.32448 1.07465,-1.31853 0.065,8.4e-4 0.46545,0.28001 0.89008,0.61934 0.42461,0.3393 -0.35912,1.21812 0.36123,1.74876 2.17542,1.60249 2.66615,1.99519 3.60592,2.88556 0.9633,0.91268 2.09577,1.77075 3.6121,2.73688 0.51761,0.3298 1.37955,0.90017 1.91544,1.26754 1.02877,0.70521 1.28182,0.96338 3.03209,3.09361 0.71595,0.87135 1.13303,1.25557 1.86131,1.71466 1.85284,1.16796 2.80557,1.30167 4.92718,0.6915 1.01487,-0.29187 1.07932,-0.32144 1.93313,-0.88695 0.74007,-0.4902 1.06552,-0.7679 2.00763,-1.713 0.6184,-0.62039 1.47738,-1.54286 1.90885,-2.04992 0.57249,-0.67278 1.0999,-1.19295 1.95156,-1.92472 l 1.16708,-1.0028 1.2476,-0.58819 1.24758,-0.58822 1.31634,-0.16809 c 0.94702,-0.12094 1.76196,-0.17615 2.90456,-0.1968 1.5576,-0.0282 1.61356,-0.0244 2.90321,0.19492 1.28687,0.21887 1.34169,0.23502 2.56162,0.75448 1.05331,0.44852 1.42194,0.64741 2.37766,1.28259 1.02168,0.67907 1.22102,0.84539 2.06088,1.7196 1.03162,1.07383 1.77398,2.12639 2.88764,4.09424 0.32864,0.58067 0.92126,1.54569 1.31695,2.1445 1.3944,2.11009 2.03998,3.27687 2.60954,4.71614 0.49276,1.24523 0.54175,1.41804 0.84371,2.97634 l 0.32057,1.65435 -0.0179,1.42273 -0.0178,1.42272 -0.33448,1.26603 z m -0.11959,-5.70128 c -0.26433,-1.41211 -0.3238,-1.6247 -0.78278,-2.79791 -0.5589,-1.42861 -1.22959,-2.6559 -2.47793,-4.5343 -0.41456,-0.62376 -1.04543,-1.64761 -1.40198,-2.27523 -0.35653,-0.62759 -0.94346,-1.59131 -1.30426,-2.14156 -0.36081,-0.55025 -0.65588,-1.01882 -0.65569,-1.04122 -4.3e-4,-0.0225 -0.38398,-0.45536 -0.85366,-0.9621 -0.79583,-0.8586 -0.93872,-0.97828 -2.09726,-1.75668 -1.10362,-0.74151 -1.38318,-0.89428 -2.48906,-1.36016 -1.22835,-0.51754 -1.2644,-0.52791 -2.57595,-0.74143 -1.26263,-0.20564 -1.40141,-0.21518 -2.73517,-0.18932 -0.9565,0.0186 -1.85968,0.084 -2.82925,0.20499 l -1.42422,0.17775 -1.21751,0.59774 c -1.20102,0.58962 -1.23278,0.61089 -2.34449,1.56912 -0.83887,0.72305 -1.36037,1.24324 -2.03986,2.03474 -0.50206,0.58486 -1.34395,1.4959 -1.87084,2.02457 -0.7936,0.79627 -1.13575,1.08113 -1.99401,1.6602 -0.56984,0.38442 -1.05981,0.684 -1.08886,0.66571 -0.0289,-0.0188 -0.49345,0.0977 -1.03203,0.25774 -0.8975,0.26666 -1.03956,0.29046 -1.70149,0.28503 -0.80746,-0.007 -1.76615,-0.12649 -1.80087,-0.22513 -0.0125,-0.0355 -0.20915,-0.16062 -0.43695,-0.27797 -1.3527,-0.69671 -2.11726,-1.33571 -3.25192,-2.71791 -1.70117,-2.07227 -1.64328,-2.01752 -3.26556,-3.08947 -0.81322,-0.53736 -1.64496,-1.08261 -1.84832,-1.21166 -0.89827,-0.5701 -2.24912,-1.62579 -3.01729,-2.35805 -0.857,-0.81692 -1.56796,-1.38593 -3.49503,-2.79728 -0.60956,-0.44642 0.21432,-1.29506 -0.27204,-1.6817 -0.48636,-0.38665 -0.92467,-0.70316 -0.97403,-0.70338 -0.22693,-0.001 -0.87314,0.76487 -0.87537,1.03751 -0.001,0.15873 -0.49483,1.33716 1.09845,2.49061 1.70048,1.23102 2.73579,2.06034 3.60003,2.88368 0.90299,0.86024 2.05187,1.73978 3.46852,2.65539 2.53949,1.64131 2.6681,1.73844 3.34371,2.52537 0.3507,0.40847 0.82894,0.9875 1.06279,1.28673 0.78286,1.00184 1.58787,1.77838 2.41679,2.33127 0.42508,0.28353 0.78788,0.53856 0.80623,0.56675 0.0183,0.0282 0.32004,0.1978 0.67039,0.37707 0.81204,0.41536 1.30183,0.50596 2.86973,0.5319 l 1.21617,0.0201 1.15166,-0.35455 c 1.15004,-0.35405 1.15324,-0.35559 2.2727,-1.0942 1.03329,-0.6818 1.21701,-0.83602 2.34745,-1.97075 0.67454,-0.6771 1.56296,-1.6235 1.97425,-2.10313 0.47908,-0.55868 1.10961,-1.18465 1.75449,-1.74191 0.92788,-0.80176 1.08243,-0.90702 1.97452,-1.34473 l 0.96784,-0.47491 1.14868,-0.13721 c 0.65592,-0.0783 1.7596,-0.14933 2.57282,-0.16545 1.26578,-0.0251 1.53992,-0.0104 2.46533,0.13479 1.07633,0.16856 1.20828,0.21257 2.89285,0.96574 0.31473,0.14075 1.01079,0.54972 1.54674,0.90885 1.74181,1.16717 2.81569,2.44696 4.41362,5.26004 0.3392,0.59709 0.93345,1.55984 1.3206,2.13939 1.98053,2.96495 2.7403,4.63044 3.17177,6.95291 0.20601,1.10893 0.24203,1.45792 0.26166,2.53617 l 0.0227,1.25029 -0.28723,1.1126 c -0.24247,0.93922 -0.37498,1.2962 -0.85029,2.29052 -0.35279,0.73786 -0.80715,1.54599 -1.21647,2.16323 l -0.6534,0.98532 -0.83286,0.60735 c -0.45808,0.33405 -0.86886,0.60707 -0.91289,0.60669 -0.0441,-2.3e-4 -0.56996,0.17706 -1.16877,0.39424 -0.90199,0.32714 -1.33406,0.43906 -2.51861,0.65238 -2.13014,0.38362 -3.94866,0.84543 -5.28856,1.34304 -1.02228,0.37966 -1.29705,0.51646 -2.20515,1.09793 l -1.03735,0.66426 -0.67824,0.85819 c -1.26082,1.59533 -2.14398,3.75347 -2.5987,6.35028 -0.18081,1.03262 -0.25477,1.29568 -0.58915,2.09577 -0.32715,0.78275 -0.44085,0.97868 -0.78704,1.35596 -0.22256,0.24255 -0.40487,0.46812 -0.40514,0.50128 -4.7e-4,0.0332 -0.35046,0.19997 -0.77819,0.37069 -0.914,0.36486 -2.75084,0.77693 -3.99615,0.89648 -0.44633,0.0429 -0.85732,0.0999 -0.91328,0.12668 -0.0559,0.0268 -0.69412,-0.0246 -1.41811,-0.11427 -1.12787,-0.13961 -1.52493,-0.22318 -2.77315,-0.58312 -1.26368,-0.36443 -1.61218,-0.49673 -2.62887,-0.99794 -1.01366,-0.49975 -1.29886,-0.67832 -2.1103,-1.32139 -0.51602,-0.40894 -1.41703,-1.20491 -2.00223,-1.76879 -1.11744,-1.07677 -2.45383,-2.60201 -2.45223,-2.7988 7.3e-4,-0.0636 -0.1036,-0.33785 -0.2315,-0.60935 -0.26228,-0.55698 -0.26876,-0.58203 -0.13701,-0.53023 0.074,0.0291 0.10615,-0.0746 0.1469,-0.47394 0.0318,-0.30644 0.0828,-0.51133 0.12864,-0.51155 0.0421,8e-5 0.18958,-0.28023 0.32776,-0.62238 0.19543,-0.48324 0.27765,-0.82276 0.36976,-1.52219 l 0.11847,-0.90014 -0.21449,-0.68864 c -0.18574,-0.59626 -0.30428,-0.82185 -0.88405,-1.68222 -0.6159,-0.91399 -0.7314,-1.04523 -1.44136,-1.63771 -2.03486,-1.69812 -3.94375,-2.80601 -6.31376,-3.66438 -0.79228,-0.28694 -2.58048,-1.00279 -3.97379,-1.59077 -1.39331,-0.588 -2.95761,-1.23989 -3.47622,-1.44863 -0.51858,-0.20875 -2.09842,-1.53894 -2.13928,-1.55555 -0.0425,-0.0173 0.19867,0.30128 0.0902,0.60154 -0.10441,0.28907 0.13748,1.4876 0.0619,1.60982 -0.0759,0.12212 -0.12697,0.2332 -0.11346,0.24687 0.0136,0.0136 1.19034,0.5266 2.15338,0.9233 0.96303,0.39671 2.5843,1.06928 3.60287,1.4946 1.01856,0.42531 2.45284,0.98671 3.1873,1.24757 2.09423,0.74377 3.94639,1.79682 5.64785,3.2111 0.30991,0.25759 0.64057,0.51978 0.73484,0.58265 0.23745,0.15838 1.09169,1.50233 1.19085,1.87355 0.0448,0.16759 0.12322,0.33992 0.17433,0.38293 0.16647,0.14007 -0.0742,1.20791 -0.49947,2.21597 -0.33909,0.80373 -0.37653,0.94582 -0.46078,1.73403 l -0.0914,0.8586 0.31512,0.77902 c 0.28625,0.70766 0.38086,0.85873 1.03286,1.64934 1.01894,1.23558 2.72506,2.90239 3.98023,3.8886 0.93744,0.73652 1.22562,0.91901 2.41914,1.53177 1.33918,0.68755 1.3757,0.70146 3.14247,1.19671 1.65061,0.4627 1.88656,0.51141 3.08056,0.63626 1.24366,0.12998 1.33522,0.13098 2.39862,0.0253 1.33676,-0.13284 3.42206,-0.58652 4.01757,-0.87405 0.22388,-0.10813 0.69696,-0.32198 1.0513,-0.47529 0.61476,-0.26598 0.67231,-0.30956 1.25792,-0.95243 0.33754,-0.37052 0.62512,-0.70737 0.6391,-0.74853 0.014,-0.0413 0.23459,-0.60557 0.49201,-1.25352 0.42164,-1.06424 0.48486,-1.28996 0.65675,-2.32589 0.25351,-1.52832 0.69514,-2.99442 1.23862,-4.11182 0.23401,-0.48124 0.47587,-0.92015 0.5373,-0.9754 0.0615,-0.0552 0.32241,-0.37021 0.57988,-0.69993 0.42149,-0.53977 0.55294,-0.65356 1.31914,-1.14198 0.68977,-0.43971 1.04826,-0.61413 1.89232,-0.92068 1.16228,-0.42214 3.03551,-0.87935 5.12121,-1.25003 1.1873,-0.21101 1.52196,-0.30168 2.72612,-0.7385 l 1.37265,-0.49798 1.03026,-0.75919 1.03026,-0.7592 0.76251,-1.12624 c 0.53578,-0.79133 0.94285,-1.49652 1.36888,-2.37139 0.53468,-1.0981 0.64568,-1.39246 0.93981,-2.49247 l 0.3334,-1.24739 0.0178,-1.48647 0.0176,-1.48647 -0.28608,-1.52821 z m -32.88601,-7.3259 c -0.0374,0.0229 -0.0677,0.009 -0.0674,-0.0302 -1.5e-4,-0.0393 0.0317,-0.0711 0.0682,-0.071 0.0371,8e-4 0.0674,0.0138 0.0674,0.0302 -2.3e-4,0.0164 -0.0313,0.0481 -0.0682,0.071 z m -27.24849,11.1486 c -0.0564,0.0578 0.005,1.75574 0.0292,1.78012 0.0138,0.014 -0.28479,-1.02739 -0.18715,-1.26049 0.16505,-0.39291 0.22356,-0.58693 0.15775,-0.51971 z"
                id="path4622"
                inkscape:connector-curvature="0"
                sodipodi:nodetypes="cccccccccccccccccccccsccccccccccccsccccccccccccccccccccccccccccccccccccccccccccccccccccccccccccccccccccccccccccccccccccccccccccccccccccccccccccccccccccccccccccccccccsccccccccccccccscccccscccccccccccccccccccccccccccccccccccccccccccccccccccccccccccccccccccccccccccccccccccccc"/>
        <text
       id="text4503"
       y="209.23978"
       x="74.447166"
       style="font-style:normal;font-variant:normal;font-weight:normal;font-stretch:normal;font-size:40.18843079px;line-height:24.11306px;font-family:'Ubuntu Mono';-inkscape-font-specification:'Ubuntu Mono';letter-spacing:0px;word-spacing:0px;fill:#000000;fill-opacity:1;stroke:none;stroke-width:0.26458332px;stroke-linecap:butt;stroke-linejoin:miter;stroke-opacity:1"
       xml:space="preserve"><tspan
         style="font-style:normal;font-variant:normal;font-weight:normal;font-stretch:normal;line-height:30.83454132px;font-family:Vintage_fair;-inkscape-font-specification:Vintage_fair;stroke-width:0.26458332px"
         y="209.23978"
         x="74.447166"
         id="tspan4501"
         sodipodi:role="line">Macro</tspan><tspan
         style="font-style:normal;font-variant:normal;font-weight:normal;font-stretch:normal;line-height:30.83454132px;font-family:Vintage_fair;-inkscape-font-specification:Vintage_fair;stroke-width:0.26458332px"
         y="240.07433"
         x="74.447166"
         sodipodi:role="line"
         id="tspan4505">Molecular</tspan><tspan
         style="font-style:normal;font-variant:normal;font-weight:normal;font-stretch:normal;line-height:30.83454132px;font-family:Vintage_fair;-inkscape-font-specification:Vintage_fair;stroke-width:0.26458332px"
         y="270.90887"
         x="74.447166"
         sodipodi:role="line"
         id="tspan4507">Miner</tspan></text>
    </g>
</svg>
