<?xml version="1.0" encoding="UTF-8" standalone="no"?>
<!-- Created with Inkscape (http://www.inkscape.org/) -->

<svg
        xmlns:dc="http://purl.org/dc/elements/1.1/"
        xmlns:cc="http://creativecommons.org/ns#"
        xmlns:rdf="http://www.w3.org/1999/02/22-rdf-syntax-ns#"
        xmlns:sodipodi="http://sodipodi.sourceforge.net/DTD/sodipodi-0.dtd"
        xmlns:inkscape="http://www.inkscape.org/namespaces/inkscape"
        xmlns="http://www.w3.org/2000/svg"
        width="98.883614mm"
        height="98.883614mm"
        viewBox="0 0 98.883613 98.883614"
        version="1.1"
        id="svg4640"
        inkscape:version="0.92.1 r"
        sodipodi:docname="itemset-miner_small.svg">
    <defs
            id="defs4634"/>
    <sodipodi:namedview
            id="base"
            pagecolor="#ffffff"
            bordercolor="#666666"
            borderopacity="1.0"
            inkscape:pageopacity="0.0"
            inkscape:pageshadow="2"
            inkscape:zoom="0.35"
            inkscape:cx="693.41093"
            inkscape:cy="75.847707"
            inkscape:document-units="mm"
            inkscape:current-layer="layer1"
            showgrid="false"
            fit-margin-top="0"
            fit-margin-left="0"
            fit-margin-right="0"
            fit-margin-bottom="0"
            inkscape:window-width="1920"
            inkscape:window-height="1056"
            inkscape:window-x="3200"
            inkscape:window-y="0"
            inkscape:window-maximized="1"/>
    <metadata
            id="metadata4637">
        <rdf:RDF>
            <cc:Work
                    rdf:about="">
                <dc:format>image/svg+xml</dc:format>
                <dc:type
                        rdf:resource="http://purl.org/dc/dcmitype/StillImage"/>
                <dc:title></dc:title>
            </cc:Work>
        </rdf:RDF>
    </metadata>
    <g
            inkscape:label="Ebene 1"
            inkscape:groupmode="layer"
            id="layer1"
            transform="translate(-14.794117,-177.25463)">
        <g
                id="g5251"
                transform="translate(15.09902)">
            <path
                    style="display:inline;fill:#000000;stroke:#000000;stroke-width:0.30689186;stroke-miterlimit:4;stroke-dasharray:none;stroke-opacity:1"
                    d="m 15.062354,249.5159 c 0.047,-0.0795 0.31276,-0.25142 0.59058,-0.38222 0.41725,-0.19632 0.64874,-0.24905 1.32976,-0.30286 1.16005,-0.0916 2.14359,-0.29346 4.63346,-0.95083 4.44978,-1.17479 6.67207,-1.86174 9.278471,-2.86806 l 1.46401,-0.56527 -0.586891,-0.26869 c -0.3228,-0.14772 -2.40283,-1.04962 -4.622309,-2.0041 l -4.035421,-1.73542 -1.26366,-0.85599 c -2.21496,-1.50035 -3.4841,-2.59406 -4.57147,-3.93955 l -0.50161,-0.62074 0.0244,-0.91787 c 0.021,-0.78372 0.0438,-0.9427 0.15699,-1.08775 0.19446,-0.24944 1.71158,-9.79389 1.62922,-10.24985 -0.0489,-0.27084 -0.0176,-0.41643 0.2586,-1.2012 l 0.31424,-0.893 0.76481,-0.60786 c 0.6197,-0.4925 0.93733,-0.6825 1.6739,-1.00137 1.2573,-0.54428 3.20825,-0.96236 5.66724,-1.21443 2.35174,-0.24108 4.00849,-0.45399 7.28274,-0.9359 1.47909,-0.21769 2.75717,-0.40488 2.84016,-0.41604 0.14962,-0.02 0.14985,-0.0351 0.0267,-1.76133 -0.34891,-4.89282 -0.998241,-8.86031 -1.826671,-11.16136 -0.31073,-0.86309 -0.50107,-1.25521 -0.92202,-1.89934 -0.63384,-0.96984 -1.00907,-1.38942 -1.261199,-1.41018 -0.32257,-0.0266 -0.949971,0.2876 -1.648031,0.82524 -0.608359,0.46852 -0.76572,0.55006 -1.500689,0.77744 -0.45158,0.13971 -0.910851,0.24597 -1.020571,0.23614 -0.10977,-0.01 -0.50205,-0.12207 -0.872,-0.24851 l -0.67247,-0.23067 -0.55177,-0.68751 c -0.30714,-0.38269 -0.82481,-1.17789 -1.16752,-1.7936 -0.85888,-1.54276 -1.13177,-2.46444 -1.64564,-5.55798 -0.33512,-2.0175 -0.41978,-2.75056 -0.58125,-5.03361 -0.1351,-1.91008 -0.25217,-3.02392 -0.41046,-3.90545 -0.27521,-1.53243 -0.27271,-1.58364 0.0828,-1.69892 0.36001,-0.11679 1.31993,-0.21773 1.45448,-0.15298 0.0583,0.0281 0.12684,0.17214 0.15212,0.3203 0.0253,0.14808 0.12614,0.72386 0.22392,1.27946 0.15594,0.88595 0.32243,2.75833 0.49436,5.5594 0.0868,1.41442 0.76874,5.37087 1.12402,6.52149 0.32065,1.0385 0.99556,2.35768 1.63275,3.19139 0.51718,0.67675 1.0285,0.62185 2.12791,-0.22842 0.451751,-0.34937 0.86994,-0.58992 1.4623,-0.84127 l 0.82961,-0.35198 0.827481,0.11579 c 0.481749,0.0675 0.884679,0.16029 0.964299,0.22223 0.356061,0.27694 1.231571,1.33421 1.727761,2.08649 1.531399,2.32167 2.50057,6.8655 3.016219,14.14117 0.0585,0.82545 0.117121,1.522 0.130241,1.54785 0.013,0.026 0.29117,0.0912 0.617839,0.14531 0.326701,0.0541 0.69796,0.12522 0.82502,0.15833 0.244009,0.0629 0.69433,0.53247 0.89876,0.93603 0.121881,0.24049 0.12041,0.70026 -0.003,0.89617 -0.0915,0.14562 -0.144741,5.4656 -0.0583,5.8314 0.0337,0.14287 0.0688,0.75074 0.078,1.35078 l 0.0167,1.09097 -0.246962,0.43145 c -0.135769,0.23732 -0.398899,0.64856 -0.584659,0.91391 l -0.3377,0.48243 -0.99871,0.42337 c -0.68822,0.29173 -1.33297,0.49857 -2.07398,0.6653 -1.67748,0.37743 -3.67034,0.7238 -5.3166,0.92409 -0.82897,0.10084 -1.51715,0.19064 -1.52932,0.19955 -0.0257,0.0188 0.83933,0.44414 4.49607,2.21058 2.45785,1.18729 2.73191,1.33805 3.62081,1.99185 l 0.96171,0.70733 0.51998,0.84922 0.51998,0.8492 0.0178,0.91701 c 0.0157,0.80827 -0.002,0.9909 -0.15369,1.54003 -0.2548,0.92519 -1.09982,9.03548 -0.97501,9.35794 0.0681,0.17595 0.0567,0.43682 -0.0571,1.31478 l -0.14207,1.09532 -0.72965,1.03228 -0.72967,1.0323 -1.14349,0.84206 c -0.62891,0.46319 -1.56547,1.10632 -2.08106,1.42947 -0.79478,0.49748 -0.91777,0.59842 -0.80661,0.66142 0.0722,0.041 0.65954,0.62557 1.30524,1.29924 l 1.17401,1.22482 0.34599,1.08916 0.346,1.08916 -0.15745,2.85676 c -0.21981,3.98636 -0.21315,4.34828 0.0961,5.27139 0.23692,0.70732 0.27182,0.76364 0.78661,1.26955 l 0.53869,0.52939 1.04005,0.28888 c 0.99023,0.27502 1.08495,0.28898 1.977658,0.29042 1.275781,0.002 2.62658,-0.29064 4.400801,-0.95394 1.795119,-0.6711 3.87022,-1.24131 5.548001,-1.52451 1.154279,-0.19481 1.67972,-0.24227 2.96986,-0.26817 1.47986,-0.0297 1.651908,-0.0192 3.077898,0.18779 1.295022,0.188 1.723131,0.28339 3.001891,0.66891 1.838061,0.55415 3.829439,1.40198 5.65077,2.40574 1.530951,0.84375 2.69839,1.33148 3.45521,1.44358 0.61781,0.0915 0.873519,0.032 0.893299,-0.20819 0.02421,-0.29441 -0.31442,-1.35563 -0.663088,-2.07778 -0.187632,-0.38854 -1.048591,-4.80447 -1.048591,-4.80447 l 1.878229,-0.32232 0.73048,1.30899 c 0,0 0.82314,4.28437 0.929021,4.63336 0.17281,0.56955 0.18878,0.73111 0.15602,1.57772 -0.045,1.16435 -0.0581,1.18482 -1.0979,1.69964 l -0.744349,0.36863 -0.953521,-0.0785 c -0.931469,-0.0767 -0.980459,-0.0898 -2.120329,-0.53214 -0.74268,-0.28874 -1.618192,-0.70334 -2.408502,-1.14056 -2.729788,-1.5102 -5.385919,-2.47594 -7.90184,-2.87301 -1.27508,-0.20131 -1.454208,-0.21335 -2.71432,-0.18354 -2.410378,0.057 -5.011788,0.60975 -7.854548,1.66895 -0.9789,0.36474 -1.678842,0.56654 -2.756562,0.7948 -1.37913,0.29212 -1.498999,0.30503 -2.649339,0.28536 -1.198649,-0.0205 -1.210369,-0.0222 -2.265879,-0.32619 -0.88745,-0.25559 -1.08421,-0.33678 -1.20287,-0.49646 -0.15514,-0.20802 -1.11698,-0.90484 -2.5473,-1.84403 -1.19634,-0.78556 -1.96783,-1.39412 -4.40026,-3.47087 l -2.015,-1.72037 -2.21182,-0.86736 c -2.622347,-1.02836 -3.910597,-1.41046 -5.816787,-1.72538 -1.65732,-0.27378 -3.22544,-0.6599 -4.09536,-1.00827 -1.04051,-0.41677 -1.54513,-1.12436 -1.29264,-1.81265 0.12137,-0.33103 -0.40201,-9.97513 -0.55566,-10.23806 -0.11125,-0.1906 -0.0881,-0.67509 0.0432,-0.8971 z m 0.13386,0.87025 c 0.0862,0.23701 0.18074,1.51568 0.36108,4.89008 0.30303,5.66996 0.2457,5.0533 0.46657,5.01682 0.24972,-0.0413 0.21772,0.0762 -0.0571,0.20944 -0.30005,0.14547 -0.34117,0.49329 -0.0986,0.83489 0.18351,0.25811 0.39621,0.31596 0.63993,0.17358 0.25497,-0.14894 0.9649,-0.24418 2.23903,-0.30024 3.78996,-0.16669 9.38557,-1.79336 13.650791,-3.96833 1.504909,-0.7674 2.896809,-1.62763 4.442529,-2.74559 l 1.20025,-0.86809 0.761931,-1.07703 0.76195,-1.07703 0.035,-0.58348 c 0.0205,-0.33432 0.0126,-0.45325 -0.0176,-0.27846 -0.0291,0.16774 -0.0784,0.30287 -0.10962,0.3003 -0.065,-0.005 0.0799,-2.82905 0.25278,-4.92868 0.0644,-0.78242 0.14436,-2.01409 0.1776,-2.73708 l 0.0605,-1.31445 -0.5159,0.62844 c -0.28375,0.34564 -0.54823,0.63668 -0.58774,0.64676 -0.17254,0.0441 -0.0137,-0.20759 0.62641,-0.99256 l 0.68409,-0.83887 0.34545,-1.06784 c 0.33961,-1.04981 0.34526,-1.08112 0.33386,-1.85357 -0.006,-0.43217 -0.0331,-0.85303 -0.0593,-0.93525 -0.0262,-0.0822 -0.2518,-0.49072 -0.50129,-0.90777 -0.45192,-0.75551 -0.45714,-0.76081 -1.39995,-1.44286 -0.56136,-0.40608 -1.27368,-0.84381 -1.7511,-1.07604 -7.09859,-3.45289 -6.75954,-3.30462 -7.30654,-3.19528 -0.176,0.0352 -0.17129,0.0428 0.0965,0.15625 0.5561,0.23623 2.59176,1.24798 2.65359,1.31889 0.10673,0.12244 -5.03e-4,0.0796 -0.89103,-0.35741 -2.09931,-1.02966 -2.252,-1.08993 -2.67694,-1.05684 -1.56204,0.11645 -0.56005,0.0892 -1.56204,0.11645 -1.95672,0.15864 -4.26355,0.61855 -6.16525,1.2291 -0.82255,0.26407 -1.96886,0.86273 -2.42868,1.26835 -0.58042,0.512 -0.58564,0.69066 -0.0399,1.3615 0.26863,0.33021 0.37781,0.51586 0.31258,0.53182 -0.11063,0.027 -0.59331,-0.49502 -0.67644,-0.7316 -0.0504,-0.14351 -0.0534,-0.14287 -0.0706,0.0123 -0.0104,0.0892 -0.0505,0.15961 -0.0903,0.15632 -0.0398,-0.004 -0.0579,-0.18216 -0.0401,-0.39756 0.0202,-0.24499 -3e-5,-0.40539 -0.0539,-0.42844 -0.0529,-0.0222 0.0594,-0.18138 0.28838,-0.40869 0.20605,-0.2045 0.37741,-0.40549 0.3808,-0.44664 0.009,-0.10971 1.48537,-0.80923 2.20888,-1.0467 2.25623,-0.74044 4.28308,-1.1113 7.3777,-1.34995 5.03003,-0.38786 9.38678,-1.15418 11.28612,-1.98508 0.9929,-0.43437 1.01793,-0.45586 1.607121,-1.3816 0.34745,-0.54594 0.394311,-0.66393 0.42849,-1.07899 0.0222,-0.26922 0.009,-0.45079 -0.0323,-0.42997 -0.0388,0.0199 -0.0863,0.004 -0.105799,-0.0321 -0.01889,-0.0381 -0.0167,-1.71664 0.006,-3.73094 0.0341,-3.07457 0.0586,-3.7051 0.15308,-3.92847 0.109392,-0.25855 0.10586,-0.27423 -0.122877,-0.556 -0.129411,-0.15946 -0.251082,-0.36168 -0.26933,-0.45001 -0.0586,-0.27609 -0.320552,-0.40502 -1.134612,-0.55849 -0.69409,-0.13075 -0.89551,-0.13926 -1.875,-0.0782 -0.60358,0.0376 -2.22482,0.23589 -3.60275,0.44061 -3.22603,0.47931 -5.08231,0.71896 -7.35669,0.94982 -1.97909,0.20088 -4.57493,0.69477 -5.06511,0.96369 -0.14672,0.0805 -0.60365,0.28872 -1.01535,0.46272 -0.53374,0.22553 -0.9325,0.46132 -1.38957,0.82158 l -0.64104,0.50527 -0.30476,0.86073 c -0.25688,0.72556 -0.29512,0.8979 -0.24346,1.09744 0.0481,0.18634 -0.0992,1.24073 -0.68956,4.94983 -0.41294,2.59219 -0.75583,4.77405 -0.76196,4.84858 -0.008,0.0974 0.10192,0.0301 0.39079,-0.2376 0.22107,-0.2052 0.43121,-0.37068 0.46699,-0.36773 0.15956,0.0132 0.006,0.22589 -0.54368,0.75461 l -0.59158,0.56872 -0.0667,0.81015 -0.0667,0.81013 0.44237,0.59457 c 0.88829,1.19398 2.47281,2.56164 4.66903,4.03 1.09154,0.72977 1.1347,0.75066 5.1097,2.47273 2.20487,0.95523 4.34869,1.88409 4.76402,2.06418 l 0.75515,0.3274 0.52966,-0.20976 0.52968,-0.20977 -1.03969,-0.44287 c -0.57182,-0.24357 -1.0544,-0.46309 -1.07237,-0.48783 -0.018,-0.0247 -0.58622,-0.28377 -1.26274,-0.57562 -0.67653,-0.29183 -1.35555,-0.59755 -1.50894,-0.6794 -0.1534,-0.0818 -0.74266,-0.34465 -1.30949,-0.58406 -0.56685,-0.23937 -1.08488,-0.48223 -1.15122,-0.53964 -0.18647,-0.16145 -0.0496,-0.20188 0.16858,-0.0498 0.1068,0.0743 0.7003,0.35162 1.31903,0.6161 2.50281,1.0698 3.72678,1.6115 3.75709,1.66281 0.0179,0.0296 0.53841,0.26755 1.15743,0.52846 l 1.12551,0.47438 1.01453,-0.38793 c 0.70715,-0.2704 1.29549,-0.56294 1.94188,-0.9656 0.79456,-0.49491 0.99389,-0.65912 1.39229,-1.14637 l 0.46494,-0.56871 0.30538,-1.14312 c 0.42393,-1.58701 0.42392,-1.58217 0.003,-2.30253 -0.192979,-0.33012 -0.34819,-0.63373 -0.344749,-0.6748 0.0145,-0.17681 0.16301,-0.032 0.403759,0.39408 0.14209,0.25151 0.29873,0.45271 0.34805,0.44713 0.062,-0.007 0.0918,0.20852 0.0966,0.70216 0.006,0.63274 -0.0187,0.79317 -0.223241,1.43731 -0.12655,0.39881 -0.235,0.79022 -0.24083,0.86979 -0.006,0.0796 -0.265539,0.45992 -0.57709,0.84518 -0.52671,0.65131 -0.634009,0.74197 -1.52802,1.29109 -1.00742,0.61879 -1.17176,0.68942 -5.25397,2.25813 -3.41652,1.31293 -5.33895,1.91859 -9.96103,3.13825 -2.38627,0.62967 -3.74234,0.90927 -4.642,0.95711 -0.79579,0.0423 -1.17018,0.15337 -1.30431,0.38688 -0.0629,0.10948 -0.11945,0.15007 -0.13423,0.0959 -0.0388,-0.14311 -0.14626,-0.12142 -0.35775,0.0721 -0.23351,0.2138 -0.25804,0.41072 -0.10378,0.83409 z m 3.22413,-20.56726 c 0.0398,0.004 0.0684,0.0548 0.0634,0.1143 -0.005,0.0595 -0.0414,0.10571 -0.0813,0.10244 -0.0398,-0.004 -0.0683,-0.0546 -0.0633,-0.11437 0.005,-0.0596 0.0414,-0.10571 0.0812,-0.10243 z m -0.0655,0.79524 c 0.0398,0.004 0.0684,0.0548 0.0634,0.11429 -0.005,0.0596 -0.0414,0.10571 -0.0813,0.10243 -0.0398,-0.004 -0.0683,-0.0546 -0.0633,-0.11436 0.005,-0.0596 0.0414,-0.10572 0.0812,-0.10245 z m -0.0655,0.79525 c 0.0398,0.004 0.0683,0.0547 0.0634,0.1143 -0.005,0.0596 -0.0414,0.10571 -0.0813,0.10243 -0.0398,-0.004 -0.0682,-0.0548 -0.0633,-0.11437 0.005,-0.0595 0.0414,-0.10571 0.0812,-0.10244 z m 0.46522,-4.76551 c 0.0398,0.004 0.0683,0.0547 0.0634,0.1143 -0.005,0.0596 -0.0414,0.1057 -0.0813,0.10242 -0.0396,-0.004 -0.0683,-0.0547 -0.0634,-0.1143 0.005,-0.0595 0.0415,-0.1057 0.0813,-0.10243 z m -0.0655,0.79524 c 0.0398,0.004 0.0684,0.0547 0.0635,0.1143 -0.005,0.0596 -0.0414,0.1057 -0.0813,0.10244 -0.0396,-0.004 -0.0683,-0.0547 -0.0634,-0.1143 0.005,-0.0595 0.0415,-0.10572 0.0813,-0.10244 z m -0.0655,0.79526 c 0.0398,0.004 0.0683,0.0547 0.0634,0.11429 -0.005,0.0596 -0.0414,0.10571 -0.0813,0.10244 -0.0396,-0.004 -0.0683,-0.0547 -0.0634,-0.11439 0.005,-0.0595 0.0415,-0.10571 0.0813,-0.10242 z m -0.0932,0.85209 c 0.0166,0.054 0.009,0.11608 -0.0174,0.13803 -0.0259,0.022 -0.0397,-0.022 -0.0302,-0.0981 0.01,-0.0838 0.029,-0.0996 0.0473,-0.0402 z m 0.55844,-5.61758 c 0.0398,0.004 0.0683,0.0547 0.0634,0.11429 -0.005,0.0595 -0.0414,0.10571 -0.0813,0.10243 -0.0398,-0.004 -0.0684,-0.0548 -0.0635,-0.11429 0.005,-0.0596 0.0414,-0.10571 0.0813,-0.10243 z m -0.0655,0.79524 c 0.0398,0.004 0.0683,0.0547 0.0634,0.11429 -0.005,0.0596 -0.0414,0.10571 -0.0813,0.10243 -0.0398,-0.004 -0.0683,-0.0547 -0.0634,-0.11429 0.005,-0.0596 0.0414,-0.10569 0.0813,-0.10242 z m -0.0655,0.79523 c 0.0398,0.004 0.0683,0.0547 0.0635,0.1143 -0.005,0.0596 -0.0414,0.1057 -0.0813,0.10243 -0.0398,-0.004 -0.0683,-0.0547 -0.0634,-0.1143 0.005,-0.0595 0.0414,-0.1057 0.0813,-0.10242 z m -0.0932,0.85209 c 0.0166,0.054 0.009,0.11609 -0.0173,0.13804 -0.0259,0.022 -0.0397,-0.022 -0.0302,-0.0979 0.01,-0.0841 0.029,-0.0996 0.0473,-0.0402 z m 0.42749,-4.02709 c 0.0398,0.004 0.0683,0.0546 0.0633,0.11437 -0.005,0.0596 -0.0415,0.10571 -0.0812,0.10244 -0.0396,-0.004 -0.0683,-0.0547 -0.0634,-0.1144 0.005,-0.0595 0.0414,-0.1057 0.0813,-0.10242 z m -0.0932,0.85209 c 0.0166,0.054 0.009,0.11608 -0.0174,0.13804 -0.0259,0.022 -0.0397,-0.022 -0.0302,-0.0981 0.01,-0.0838 0.029,-0.0996 0.0473,-0.0402 z m 2.27073,8.06136 c 0.0396,0.004 0.0696,0.0385 0.0664,0.0783 -0.003,0.0399 -0.0385,0.0697 -0.0783,0.0664 -0.0398,-0.004 -0.0696,-0.0385 -0.0664,-0.0783 0.003,-0.0397 0.0385,-0.0697 0.0783,-0.0664 z m 2.99943,8.87611 c 0.18498,0.0739 0.22806,0.11111 0.17833,0.15313 -0.0599,0.0507 -0.34858,-0.074 -0.3425,-0.14792 0.003,-0.0379 0.0769,-0.0403 0.16422,-0.005 z m 0.53691,0.22205 c 0.1176,0.01 0.58463,0.27466 0.54429,0.30886 -0.0586,0.0497 -0.61865,-0.18176 -0.61277,-0.25325 0.003,-0.0334 0.0337,-0.0586 0.0685,-0.0557 z m 3.21136,-10.38649 c 0.97649,-0.0695 1.84992,-0.13596 1.94096,-0.14767 0.091,-0.0117 0.16275,0.0124 0.159461,0.0524 -0.003,0.0406 -0.0205,0.0726 -0.0376,0.0712 -0.0174,-0.001 -0.84944,0.0608 -1.84921,0.13853 -1.973989,0.15321 -2.0008,0.15417 -1.99383,0.0695 0.003,-0.0316 0.80367,-0.1143 1.780161,-0.18381 z m -2.44624,10.7047 c 0.0672,0.0344 0.17778,0.0835 0.24575,0.10936 0.10188,0.0386 0.17353,0.17952 0.0876,0.17247 -0.11922,-0.01 -0.46638,-0.21381 -0.46164,-0.27128 0.003,-0.0412 0.0592,-0.0457 0.12831,-0.0105 z m 0.52694,18.36147 c 0.76911,-0.2297 2.09243,-0.69233 2.940711,-1.02808 2.00811,-0.7948 2.01744,-0.79815 2.066,-0.74086 0.0761,0.0896 -3.449311,1.4334 -4.906811,1.87019 -1.52618,0.45738 -1.51144,0.45374 -1.50346,0.3705 0.003,-0.0299 0.634451,-0.24208 1.40356,-0.47175 z m 1.58289,-12.06783 c 0.15707,-0.0801 0.463641,-0.14382 0.42234,-0.0879 -0.0251,0.034 -0.14597,0.0876 -0.26877,0.11937 -0.21318,0.0552 -0.292,0.039 -0.15361,-0.0315 z m 2.51165,-14.46585 c 0.0396,0.004 0.0696,0.0385 0.0664,0.0783 -0.003,0.0397 -0.0385,0.0696 -0.0783,0.0664 -0.0398,-0.004 -0.0696,-0.0386 -0.0663,-0.0782 0.003,-0.0397 0.0385,-0.0697 0.0782,-0.0664 z m 1.17567,13.1253 c 0.0398,0.004 0.0696,0.0384 0.0663,0.0782 -0.003,0.0399 -0.0384,0.0696 -0.0782,0.0663 -0.0398,-0.004 -0.0697,-0.0385 -0.0664,-0.0783 0.003,-0.0396 0.0385,-0.0696 0.0783,-0.0665 z m -15.03461,16.95836 c 0.0632,0.005 0.37333,0.11089 0.68914,0.23507 0.83518,0.32811 2.51221,0.7354 4.09787,0.9955 1.79526,0.29418 3.15578,0.70026 5.55648,1.65845 1.02708,0.40995 1.94495,0.77115 2.03969,0.80271 0.0947,0.0315 0.98568,0.7472 1.979821,1.59037 1.57016,1.33167 2.206409,1.84681 3.9375,3.18797 0.183039,0.14176 0.720599,0.52067 1.19453,0.84189 0.47396,0.32123 1.0626,0.73023 1.308079,0.90892 l 0.44635,0.32493 0.0727,-0.37064 c 0.0844,-0.42997 0.20624,-0.68978 0.381029,-0.81207 0.0681,-0.0478 0.125371,-0.10706 0.127121,-0.13206 0.002,-0.0251 -0.23914,-0.2783 -0.53536,-0.56285 -0.296231,-0.28456 -0.534241,-0.57261 -0.52904,-0.63999 0.005,-0.0674 -0.0875,-0.38618 -0.206071,-0.70842 -0.199599,-0.54243 -0.215629,-0.66951 -0.21614,-1.71408 -3.96e-4,-0.62052 0.071,-2.28505 0.15866,-3.69896 l 0.15919,-2.57076 -0.273519,-0.89594 c -0.15045,-0.49276 -0.30778,-0.99052 -0.349661,-1.10612 -0.0975,-0.2693 -2.34383,-2.62944 -2.57865,-2.70935 -0.109869,-0.0373 -0.22743,-0.0248 -0.30944,0.0344 -0.333099,0.2387 -2.7727,1.40576 -4.03166,1.92886 -3.3317,1.38431 -7.97843,2.55732 -10.48057,2.64572 -1.51182,0.0534 -2.0395,0.12982 -2.21719,0.32106 -0.16934,0.18219 -0.57475,0.31613 -0.62989,0.20797 -0.0191,-0.0384 0.0491,-0.0832 0.15242,-0.0999 0.10313,-0.0171 0.18989,-0.0599 0.19282,-0.0954 0.007,-0.0905 -0.11948,-0.0909 -0.18625,-5.3e-4 -0.0306,0.0413 -0.15381,0.0525 -0.27395,0.0245 l -0.21849,-0.0505 0.21384,0.22526 c 0.11768,0.12389 0.26554,0.22951 0.32876,0.2347 z m 6.5321,0.56009 c 0.0977,0.0301 0.63382,0.18074 1.19166,0.33389 0.75038,0.20592 1.01202,0.30559 1.00564,0.38305 -0.005,0.0577 -0.0392,0.082 -0.0769,0.0541 -0.0376,-0.0276 -0.53692,-0.18323 -1.10965,-0.3458 -0.57271,-0.16256 -1.07437,-0.33715 -1.11474,-0.38824 -0.0559,-0.0708 -0.0312,-0.0796 0.10405,-0.0372 z m 4.23911,1.4914 c 0.0848,0.007 0.14593,0.0593 0.14085,0.12071 -0.005,0.0595 -0.0275,0.1068 -0.0502,0.10499 -0.0229,-10e-4 -0.086,-0.0561 -0.14085,-0.12071 -0.0885,-0.10427 -0.0832,-0.11574 0.0502,-0.105 z m 2.13308,-4.62818 c 0.0398,0.004 0.0697,0.0385 0.0664,0.0783 -0.003,0.0396 -0.0385,0.0696 -0.0783,0.0665 -0.0396,-0.004 -0.0697,-0.0385 -0.0664,-0.0783 0.003,-0.0399 0.0384,-0.0697 0.0783,-0.0664 z m 5.95566,0.36263 c 0.0478,0.02 0.192921,0.39255 0.322461,0.82698 l 0.235559,0.78983 -0.182069,2.70251 c -0.100111,1.48641 -0.182311,3.18675 -0.182521,3.77856 -3.44e-4,0.95733 -0.0326,1.23878 -0.12867,1.12531 -0.0836,-0.0986 -0.0306,-2.02552 0.127971,-4.65771 l 0.177759,-2.95113 -0.23182,-0.78699 c -0.25936,-0.88051 -0.259099,-0.87887 -0.13856,-0.82735 z m 0.48598,10.17136 c 0.11766,0.17151 0.125591,0.26936 0.0208,0.26076 -0.0398,-0.004 -0.0698,-0.0359 -0.0668,-0.0723 0.003,-0.0364 -0.009,-0.12754 -0.0256,-0.20226 -0.0286,-0.1244 -0.0224,-0.12314 0.0719,0.0125 z m -11.97285,-81.70017 c 0.23799,3.33725 0.75949,6.74004 1.30795,8.53441 0.3983,1.30319 1.05884,2.5669 1.97946,3.78711 l 0.57719,0.76493 0.76111,0.24953 0.76109,0.24952 0.83215,-0.25746 c 0.65851,-0.20373 0.936,-0.3345 1.3297,-0.62661 0.27363,-0.20303 0.50075,-0.40842 0.504701,-0.45643 0.004,-0.048 0.192559,-0.15997 0.419129,-0.24884 0.317331,-0.12449 0.403581,-0.19027 0.37552,-0.28637 -0.0324,-0.11048 0.005,-0.11561 0.33148,-0.0447 0.31343,0.0676 0.363001,0.063 0.33458,-0.0344 -0.0739,-0.2528 0.1867,-0.0737 0.567781,0.39016 0.82037,0.9987 1.3253,1.87483 1.747729,3.03287 0.84745,2.32305 1.50663,6.34669 1.86486,11.38321 0.0633,0.8887 0.12334,1.62575 0.13365,1.63789 0.011,0.0119 0.38993,2.6e-4 0.843601,-0.0263 l 0.8249,-0.0483 -0.023,-0.18987 c -0.0127,-0.10455 -0.0684,-0.84871 -0.12382,-1.65389 -0.341549,-4.96325 -1.06234,-9.27706 -1.955759,-11.70483 -0.345081,-0.93774 -0.530391,-1.31562 -0.98226,-2.00293 -0.306331,-0.46589 -0.81485,-1.13585 -1.13005,-1.4888 -0.61848,-0.69245 -0.604001,-0.68482 -1.61231,-0.85017 l -0.55397,-0.0907 -0.845311,0.35443 c -0.6396,0.26819 -0.99593,0.47445 -1.46431,0.84761 -0.46819,0.37299 -0.75661,0.53997 -1.1839,0.68539 -0.6295,0.21423 -0.72241,0.2259 -0.653129,0.0819 0.0333,-0.0692 -0.0315,-0.1249 -0.213591,-0.18429 -0.16225,-0.0529 -0.25817,-0.12807 -0.2531,-0.19817 0.005,-0.0621 -0.15513,-0.35241 -0.35479,-0.64495 -1.00249,-1.46881 -1.56044,-2.91162 -1.86399,-4.81784 -0.12357,-0.77596 -0.182,-0.9821 -0.28907,-1.0197 -0.0737,-0.0263 -0.10944,-0.0807 -0.0797,-0.12128 0.0301,-0.041 0.0869,-0.0506 0.12616,-0.0217 0.044,0.0324 0.0594,-0.001 0.0402,-0.0865 -0.10868,-0.48542 -0.40651,-2.67551 -0.43419,-3.19281 -0.12954,-2.42028 -0.32923,-4.61986 -0.51659,-5.69083 -0.11746,-0.67133 -0.22503,-1.23412 -0.23905,-1.25065 -0.0139,-0.0167 -0.24091,0.0138 -0.50421,0.0673 -0.2633,0.0536 -0.59706,0.10684 -0.7417,0.11832 l -0.26297,0.0209 0.21487,1.1991 c 0.14924,0.83268 0.27234,2.00457 0.40289,3.83506 z m -0.0327,-5.23455 c 0.25803,-0.038 0.5534,-0.098 0.65638,-0.13323 0.1658,-0.0567 0.1538,-0.0626 -0.10485,-0.0517 -0.36412,0.0154 -1.09556,0.16581 -1.05256,0.21653 0.0178,0.0205 0.24301,0.007 0.50109,-0.0317 z m 16.130201,61.76144 c 0.0647,0.0817 0.0966,-0.14115 0.27674,-1.92652 0.1611,-1.59714 0.173729,-1.86151 0.0784,-1.64399 -0.0624,0.14253 -0.127171,0.27058 -0.14359,0.28451 -0.0388,0.0327 -0.245541,3.24317 -0.211641,3.28598 z m -2.00095,27.85699 c 0.0148,0.12777 0.0814,0.26745 0.148,0.31043 0.0667,0.043 0.58102,0.20702 1.143139,0.36451 1.006451,0.28188 1.040341,0.28649 2.22167,0.30221 1.11669,0.0148 1.28675,-0.003 2.459421,-0.2565 0.861499,-0.18635 1.697781,-0.43391 2.645209,-0.78308 1.959602,-0.72225 3.80864,-1.22351 5.475009,-1.48427 2.900082,-0.45378 5.264423,-0.28359 8.103913,0.58326 1.26515,0.38629 3.79154,1.38613 4.007199,1.58592 0.28144,0.26076 2.616819,1.42535 3.681029,1.83565 1.136182,0.43806 1.29386,0.48079 1.979221,0.53647 0.815409,0.0664 0.842981,0.0593 1.771459,-0.41357 0.78263,-0.39904 0.808641,-0.44488 0.833631,-1.47028 0.01569,-0.6466 -0.008,-0.91065 -0.1016,-1.10957 -0.0673,-0.14355 -0.1832,-0.47454 -0.25763,-0.7355 -0.0744,-0.26096 -0.896041,-4.52524 -0.896041,-4.52524 l -0.408048,-1.1136 -1.710891,0.24448 c 0,0 0.939519,4.57435 1.09874,4.90208 0.15919,0.32777 0.339461,0.77198 0.40054,0.98717 0.0611,0.21518 0.141229,0.39375 0.17812,0.39679 0.0369,0.003 0.0588,0.11142 0.0489,0.24059 -0.0279,0.35096 0.0439,0.44289 0.288351,0.3723 0.44585,-0.12878 0.46558,0.0373 0.0258,0.21767 -0.165701,0.068 -0.304972,0.1684 -0.309711,0.22263 -0.0132,0.16009 -0.219789,0.1784 -0.874699,0.0776 -0.867402,-0.1334 -2.254051,-0.69875 -3.734311,-1.52226 -1.692769,-0.94172 -3.77326,-1.83622 -5.521229,-2.37381 -1.164032,-0.358 -1.695821,-0.48046 -2.952322,-0.68023 -1.492628,-0.23725 -1.57263,-0.24281 -3.07127,-0.21434 -1.214739,0.023 -1.819269,0.0749 -2.871168,0.24638 -1.640282,0.26739 -3.786291,0.85264 -5.636361,1.5371 -1.915329,0.7086 -3.2948,1.00099 -4.680751,0.99213 -0.552479,-0.003 -1.041009,-0.0334 -1.085639,-0.0663 -0.1723,-0.12728 -1.71506,-0.51101 -1.87178,-0.46614 -0.18358,0.053 -0.50554,0.55766 -0.53387,0.83684 -0.01,0.1043 -0.007,0.29401 0.008,0.42174 z"
                    id="path4611"
                    inkscape:connector-curvature="0"
                    sodipodi:nodetypes="cccsccccccccscccccssscsccscsccccsscsccccscccccscscccccccccsccscccsccccccccccccccscccscccccsccccccsccccccccsccccscccccscccsccccscccccsscccccssccscscsccscssccsccccccscssccsssscsccsccssccccccccccscscccccsccccccccccccccscccccscscccccccccccccccsssssssssssssssssssssssssssssssccccssssssssssscsssccsccssscscccscsssscccscsscssccsscscccscccsccscccccccsssssssssssccccccccccccsccsscscccsccccscsccsccscsccssscssscsscccccccccccssccssccccccsccsccssccccsscsccsccccccscccccccccccsccccccccccccccccccccccccccscccsscccscccscccccccccccccccccccccacccccccc"/>
            <text
         id="text4619"
         y="205.74759"
         x="54.437271"
         style="font-style:normal;font-variant:normal;font-weight:normal;font-stretch:normal;font-size:40.18843079px;line-height:24.1130619px;font-family:'Ubuntu Mono';-inkscape-font-specification:'Ubuntu Mono';letter-spacing:0px;word-spacing:0px;display:inline;fill:#000000;fill-opacity:1;stroke:none;stroke-width:0.26458332px;stroke-linecap:butt;stroke-linejoin:miter;stroke-opacity:1"
         xml:space="preserve"><tspan
           style="font-style:normal;font-variant:normal;font-weight:normal;font-stretch:normal;line-height:30.83454132px;font-family:Vintage_fair;-inkscape-font-specification:Vintage_fair;stroke-width:0.26458332px"
           y="205.74759"
           x="54.437271"
           id="tspan4613"
           sodipodi:role="line">M</tspan><tspan
           style="font-style:normal;font-variant:normal;font-weight:normal;font-stretch:normal;line-height:30.83454132px;font-family:Vintage_fair;-inkscape-font-specification:Vintage_fair;stroke-width:0.26458332px"
           y="236.58214"
           x="54.437271"
           sodipodi:role="line"
           id="tspan4615">M</tspan><tspan
           style="font-style:normal;font-variant:normal;font-weight:normal;font-stretch:normal;line-height:30.83454132px;font-family:Vintage_fair;-inkscape-font-specification:Vintage_fair;stroke-width:0.26458332px"
           y="267.41669"
           x="54.437271"
           sodipodi:role="line"
           id="tspan4617">M</tspan></text>
        </g>
    </g>
</svg>
